<svg width="40" height="40" viewBox="0 0 40 40" fill="none" xmlns="http://www.w3.org/2000/svg">
<path d="M7.91667 35C6.32087 35 5 33.6791 5 32.0833V23.75C5 22.1542 6.32087 20.8333 7.91667 20.8333H16.25C17.8458 20.8333 19.1667 22.1542 19.1667 23.75V32.0833C19.1667 33.6791 17.8458 35 16.25 35H7.91667ZM23.75 35C22.1542 35 20.8333 33.6791 20.8333 32.0833V23.75C20.8333 22.1542 22.1542 20.8333 23.75 20.8333H32.0833C33.6791 20.8333 35 22.1542 35 23.75V32.0833C35 33.6791 33.6791 35 32.0833 35H23.75ZM7.5 32.5H16.6667V23.75C16.6667 23.5041 16.4959 23.3333 16.25 23.3333H7.91667C7.6708 23.3333 7.5 23.5041 7.5 23.75V32.5ZM23.3333 32.5H32.5V23.75C32.5 23.5041 32.3292 23.3333 32.0833 23.3333H23.75C23.5041 23.3333 23.3333 23.5041 23.3333 23.75V32.5ZM7.91667 19.1667C6.32087 19.1667 5 17.8458 5 16.25V7.91667C5 6.32087 6.32087 5 7.91667 5H16.25C17.8458 5 19.1667 6.32087 19.1667 7.91667V16.25C19.1667 17.8458 17.8458 19.1667 16.25 19.1667H7.91667ZM23.75 19.1667C22.1542 19.1667 20.8333 17.8458 20.8333 16.25V7.91667C20.8333 6.32087 22.1542 5 23.75 5H32.0833C33.6791 5 35 6.32087 35 7.91667V16.25C35 17.8458 33.6791 19.1667 32.0833 19.1667H23.75ZM7.5 16.6667H16.6667V7.91667C16.6667 7.6708 16.4959 7.5 16.25 7.5H7.91667C7.6708 7.5 7.5 7.6708 7.5 7.91667V16.6667ZM23.3333 16.6667H32.5V7.91667C32.5 7.6708 32.3292 7.5 32.0833 7.5H23.75C23.5041 7.5 23.3333 7.6708 23.3333 7.91667V16.6667Z" fill="black"/>
</svg>
