<svg width="40" height="40" viewBox="0 0 40 40" fill="none" xmlns="http://www.w3.org/2000/svg">
<path d="M10.4167 3.33337C7.44005 3.33337 5 5.77343 5 8.75004V27.9167C5 30.8933 7.44005 33.3334 10.4167 33.3334H29.5833C32.5599 33.3334 35 30.8933 35 27.9167V8.75004C35 5.77343 32.5599 3.33337 29.5833 3.33337H10.4167ZM10.4167 5.83337H29.5833C31.2084 5.83337 32.5 7.12499 32.5 8.75004V10H7.5V8.75004C7.5 7.12499 8.79161 5.83337 10.4167 5.83337ZM7.5 12.5H32.5V27.9167C32.5 29.5418 31.2084 30.8334 29.5833 30.8334H10.4167C8.79161 30.8334 7.5 29.5418 7.5 27.9167V12.5ZM12.9167 15.8334C12.3641 15.8334 11.8342 16.0529 11.4435 16.4436C11.0528 16.8343 10.8333 17.3642 10.8333 17.9167C10.8333 18.4692 11.0528 18.9991 11.4435 19.3898C11.8342 19.7805 12.3641 20 12.9167 20C13.4692 20 13.9991 19.7805 14.3898 19.3898C14.7805 18.9991 15 18.4692 15 17.9167C15 17.3642 14.7805 16.8343 14.3898 16.4436C13.9991 16.0529 13.4692 15.8334 12.9167 15.8334ZM20 15.8334C19.4475 15.8334 18.9176 16.0529 18.5269 16.4436C18.1362 16.8343 17.9167 17.3642 17.9167 17.9167C17.9167 18.4692 18.1362 18.9991 18.5269 19.3898C18.9176 19.7805 19.4475 20 20 20C20.5525 20 21.0824 19.7805 21.4731 19.3898C21.8638 18.9991 22.0833 18.4692 22.0833 17.9167C22.0833 17.3642 21.8638 16.8343 21.4731 16.4436C21.0824 16.0529 20.5525 15.8334 20 15.8334ZM27.0833 15.8334C26.5308 15.8334 26.0009 16.0529 25.6102 16.4436C25.2195 16.8343 25 17.3642 25 17.9167C25 18.4692 25.2195 18.9991 25.6102 19.3898C26.0009 19.7805 26.5308 20 27.0833 20C27.6359 20 28.1658 19.7805 28.5565 19.3898C28.9472 18.9991 29.1667 18.4692 29.1667 17.9167C29.1667 17.3642 28.9472 16.8343 28.5565 16.4436C28.1658 16.0529 27.6359 15.8334 27.0833 15.8334ZM12.9167 23.3334C12.3641 23.3334 11.8342 23.5529 11.4435 23.9436C11.0528 24.3343 10.8333 24.8642 10.8333 25.4167C10.8333 25.9692 11.0528 26.4991 11.4435 26.8898C11.8342 27.2806 12.3641 27.5 12.9167 27.5C13.4692 27.5 13.9991 27.2806 14.3898 26.8898C14.7805 26.4991 15 25.9692 15 25.4167C15 24.8642 14.7805 24.3343 14.3898 23.9436C13.9991 23.5529 13.4692 23.3334 12.9167 23.3334ZM20 23.3334C19.4475 23.3334 18.9176 23.5529 18.5269 23.9436C18.1362 24.3343 17.9167 24.8642 17.9167 25.4167C17.9167 25.9692 18.1362 26.4991 18.5269 26.8898C18.9176 27.2806 19.4475 27.5 20 27.5C20.5525 27.5 21.0824 27.2806 21.4731 26.8898C21.8638 26.4991 22.0833 25.9692 22.0833 25.4167C22.0833 24.8642 21.8638 24.3343 21.4731 23.9436C21.0824 23.5529 20.5525 23.3334 20 23.3334Z" fill="black"/>
</svg>
