<svg width="40" height="40" viewBox="0 0 40 40" fill="none" xmlns="http://www.w3.org/2000/svg">
<path d="M17.5 5C10.6162 5 5 10.6162 5 17.5C5 24.3838 10.6162 30 17.5 30C20.3417 30 22.9369 29.0057 25.0407 27.3975L32.1549 34.5117C32.3085 34.6717 32.4925 34.7994 32.696 34.8874C32.8996 34.9753 33.1186 35.0218 33.3404 35.0241C33.5621 35.0263 33.782 34.9843 33.9873 34.9005C34.1926 34.8167 34.3792 34.6927 34.536 34.536C34.6927 34.3792 34.8167 34.1926 34.9005 33.9873C34.9843 33.782 35.0263 33.5621 35.0241 33.3404C35.0218 33.1186 34.9753 32.8996 34.8874 32.696C34.7994 32.4925 34.6717 32.3085 34.5117 32.1549L27.3975 25.0407C29.0057 22.9369 30 20.3417 30 17.5C30 10.6162 24.3838 5 17.5 5ZM17.5 8.33333C22.5824 8.33333 26.6667 12.4176 26.6667 17.5C26.6667 22.5824 22.5824 26.6667 17.5 26.6667C12.4176 26.6667 8.33333 22.5824 8.33333 17.5C8.33333 12.4176 12.4176 8.33333 17.5 8.33333ZM12.5 15.8333C12.058 15.8333 11.634 16.0089 11.3215 16.3215C11.0089 16.634 10.8333 17.058 10.8333 17.5C10.8333 17.942 11.0089 18.3659 11.3215 18.6785C11.634 18.9911 12.058 19.1667 12.5 19.1667C12.942 19.1667 13.366 18.9911 13.6785 18.6785C13.9911 18.3659 14.1667 17.942 14.1667 17.5C14.1667 17.058 13.9911 16.634 13.6785 16.3215C13.366 16.0089 12.942 15.8333 12.5 15.8333ZM17.5 15.8333C17.058 15.8333 16.634 16.0089 16.3215 16.3215C16.0089 16.634 15.8333 17.058 15.8333 17.5C15.8333 17.942 16.0089 18.3659 16.3215 18.6785C16.634 18.9911 17.058 19.1667 17.5 19.1667C17.942 19.1667 18.3659 18.9911 18.6785 18.6785C18.9911 18.3659 19.1667 17.942 19.1667 17.5C19.1667 17.058 18.9911 16.634 18.6785 16.3215C18.3659 16.0089 17.942 15.8333 17.5 15.8333ZM22.5 15.8333C22.058 15.8333 21.634 16.0089 21.3215 16.3215C21.0089 16.634 20.8333 17.058 20.8333 17.5C20.8333 17.942 21.0089 18.3659 21.3215 18.6785C21.634 18.9911 22.058 19.1667 22.5 19.1667C22.942 19.1667 23.3659 18.9911 23.6785 18.6785C23.9911 18.3659 24.1667 17.942 24.1667 17.5C24.1667 17.058 23.9911 16.634 23.6785 16.3215C23.3659 16.0089 22.942 15.8333 22.5 15.8333Z" fill="black"/>
</svg>
