<svg width="40" height="40" viewBox="0 0 40 40" fill="none" xmlns="http://www.w3.org/2000/svg">
<path d="M35 11.6667V10.4167C35 7.43 32.57 5 29.5833 5H10.4167C7.43 5 5 7.43 5 10.4167V11.6667H35ZM5 14.1667V29.5833C5 32.57 7.43 35 10.4167 35H29.5833C32.57 35 35 32.57 35 29.5833V14.1667H5ZM12.9167 30C11.7658 30 10.8333 29.0675 10.8333 27.9167C10.8333 26.7658 11.7658 25.8333 12.9167 25.8333C14.0675 25.8333 15 26.7658 15 27.9167C15 29.0675 14.0675 30 12.9167 30ZM12.9167 22.5C11.7658 22.5 10.8333 21.5675 10.8333 20.4167C10.8333 19.2658 11.7658 18.3333 12.9167 18.3333C14.0675 18.3333 15 19.2658 15 20.4167C15 21.5675 14.0675 22.5 12.9167 22.5ZM20 30C18.8492 30 17.9167 29.0675 17.9167 27.9167C17.9167 26.7658 18.8492 25.8333 20 25.8333C21.1508 25.8333 22.0833 26.7658 22.0833 27.9167C22.0833 29.0675 21.1508 30 20 30ZM20 22.5C18.8492 22.5 17.9167 21.5675 17.9167 20.4167C17.9167 19.2658 18.8492 18.3333 20 18.3333C21.1508 18.3333 22.0833 19.2658 22.0833 20.4167C22.0833 21.5675 21.1508 22.5 20 22.5ZM27.0833 22.5C25.9325 22.5 25 21.5675 25 20.4167C25 19.2658 25.9325 18.3333 27.0833 18.3333C28.2342 18.3333 29.1667 19.2658 29.1667 20.4167C29.1667 21.5675 28.2342 22.5 27.0833 22.5Z" fill="black"/>
</svg>
