<svg width="40" height="40" viewBox="0 0 40 40" fill="none" xmlns="http://www.w3.org/2000/svg">
<path d="M19.9998 3.33337C15.4123 3.33337 11.6665 7.07914 11.6665 11.6667C11.6665 16.2543 15.4123 20 19.9998 20C24.5874 20 28.3332 16.2543 28.3332 11.6667C28.3332 7.07914 24.5874 3.33337 19.9998 3.33337ZM19.9998 5.83337C23.2363 5.83337 25.8332 8.43024 25.8332 11.6667C25.8332 14.9032 23.2363 17.5 19.9998 17.5C16.7634 17.5 14.1665 14.9032 14.1665 11.6667C14.1665 8.43024 16.7634 5.83337 19.9998 5.83337ZM9.98193 23.3334C8.16542 23.3334 6.6665 24.8323 6.6665 26.6488V27.9167C6.6665 30.9202 8.5659 33.2436 11.0887 34.6355C13.6115 36.0274 16.8066 36.6667 19.9998 36.6667C23.1931 36.6667 26.3882 36.0274 28.911 34.6355C31.062 33.4487 32.6809 31.5522 33.1346 29.1667H33.3348V26.6488C33.3348 24.8323 31.8342 23.3334 30.0177 23.3334H9.98193ZM9.98193 25.8334H30.0177C30.4829 25.8334 30.8348 26.1836 30.8348 26.6488V26.6667H30.8332V27.9167C30.8332 29.9132 29.7117 31.3399 27.7033 32.448C25.6948 33.5561 22.8483 34.1667 19.9998 34.1667C17.1514 34.1667 14.3048 33.5561 12.2964 32.448C10.2879 31.3399 9.1665 29.9132 9.1665 27.9167V26.6488C9.1665 26.1836 9.51678 25.8334 9.98193 25.8334Z" fill="black"/>
</svg>
