<svg width="40" height="40" viewBox="0 0 40 40" fill="none" xmlns="http://www.w3.org/2000/svg">
<path d="M17.0833 5C10.4247 5 5 10.4247 5 17.0833C5 23.742 10.4247 29.1667 17.0833 29.1667C19.9636 29.1667 22.6114 28.1492 24.6908 26.4583L32.8662 34.6338C32.9814 34.7538 33.1194 34.8495 33.272 34.9155C33.4247 34.9815 33.589 35.0163 33.7553 35.018C33.9216 35.0197 34.0865 34.9882 34.2405 34.9254C34.3945 34.8625 34.5343 34.7695 34.6519 34.6519C34.7695 34.5343 34.8625 34.3945 34.9254 34.2405C34.9882 34.0865 35.0197 33.9216 35.018 33.7553C35.0163 33.589 34.9815 33.4247 34.9155 33.272C34.8495 33.1194 34.7538 32.9814 34.6338 32.8662L26.4583 24.6908C28.1492 22.6114 29.1667 19.9636 29.1667 17.0833C29.1667 10.4247 23.742 5 17.0833 5ZM17.0833 7.5C22.3909 7.5 26.6667 11.7758 26.6667 17.0833C26.6667 19.6688 25.6468 22.0048 23.9925 23.7256C23.8905 23.8005 23.8005 23.8905 23.7256 23.9925C22.0048 25.6468 19.6688 26.6667 17.0833 26.6667C11.7758 26.6667 7.5 22.3909 7.5 17.0833C7.5 11.7758 11.7758 7.5 17.0833 7.5Z" fill="black"/>
</svg>
