<svg width="12" height="12" viewBox="0 0 12 12" fill="none" xmlns="http://www.w3.org/2000/svg">
<path d="M6 1.50293C5.74144 1.50293 5.48304 1.5589 5.24316 1.6709L0.716309 3.78467C0.584309 3.84617 0.5 3.97901 0.5 4.12451C0.5 4.27001 0.584309 4.40286 0.716309 4.46436L5.24316 6.57812C5.48741 6.69212 5.7435 6.74902 6 6.74902C6.2565 6.74902 6.51284 6.69212 6.75684 6.57812L8.5 5.76416V8.87598C8.39546 8.9548 8.31832 9.06447 8.27946 9.1895C8.2406 9.31453 8.24199 9.4486 8.28342 9.5728C8.32486 9.697 8.40425 9.80505 8.51039 9.8817C8.61654 9.95835 8.74407 9.99973 8.875 10C9.00605 9.99986 9.13375 9.95854 9.24002 9.88186C9.3463 9.80519 9.42579 9.69704 9.46725 9.57272C9.50871 9.4484 9.51004 9.31419 9.47105 9.18907C9.43207 9.06395 9.35474 8.95426 9.25 8.87549V5.45898C9.26448 5.36541 9.24302 5.26982 9.18994 5.19141C9.18411 5.18269 9.17792 5.17422 9.17139 5.16602C9.1227 5.10284 9.05514 5.05683 8.97852 5.03467L8.97754 5.03418L6.56689 3.9165C6.52512 3.87044 6.5 3.81142 6.5 3.74951C6.5 3.71426 6.50769 3.67877 6.52344 3.64502C6.58119 3.51952 6.73047 3.46544 6.85547 3.52344L9.46436 4.73291C9.63861 4.81366 9.75 4.98841 9.75 5.18066L11.2837 4.46436C11.2887 4.46211 11.2902 4.45977 11.2944 4.45752C11.3664 4.42077 11.4281 4.3622 11.4648 4.2832C11.5523 4.09545 11.4712 3.87217 11.2837 3.78467L6.75684 1.6709C6.51696 1.5589 6.25856 1.50293 6 1.50293ZM2.5 6.09912V8.63232C2.5 9.16957 2.81099 9.65916 3.29199 9.87891C4.20674 10.2967 5.08647 10.5 5.98047 10.5H6H6.00146C6.68096 10.4975 7.38086 10.3758 8.05811 10.1445C7.86836 9.94328 7.75 9.6735 7.75 9.375C7.75 9.10925 7.846 8.86828 8 8.67578V6.79932L6.96826 7.28076C6.65876 7.42551 6.333 7.49902 6 7.49902C5.667 7.49902 5.34149 7.42551 5.03174 7.28076L2.5 6.09912Z" fill="black"/>
</svg>
