<svg width="24" height="24" viewBox="0 0 24 24" fill="none" xmlns="http://www.w3.org/2000/svg">
<path d="M16.6788 19.966V12.5602C16.6788 12.2189 16.6788 12.0483 16.6287 11.896C16.5843 11.7612 16.5118 11.6375 16.416 11.5329C16.3076 11.4147 16.1588 11.3313 15.8611 11.1644L11.9991 8.99995M19.4991 10.5V14.2722C19.4991 14.9902 19.4991 15.3491 19.3898 15.666C19.2932 15.9463 19.1354 16.2015 18.928 16.4133C18.6934 16.6528 18.3723 16.8134 17.7302 17.1344L13.4302 19.2844C12.9055 19.5468 12.6431 19.678 12.3679 19.7296C12.1242 19.7753 11.8741 19.7753 11.6303 19.7296C11.3551 19.678 11.0928 19.5468 10.5681 19.2844L6.26805 17.1344C5.62593 16.8134 5.30487 16.6528 5.0703 16.4133C4.86287 16.2015 4.70511 15.9463 4.60845 15.666C4.49914 15.3491 4.49914 14.9902 4.49914 14.2722V10.5M10.5472 4.49359L4.49683 7.57413C3.59326 8.03418 3.14147 8.2642 2.99561 8.57407C2.86865 8.8438 2.86865 9.15611 2.99561 9.42584C3.14147 9.73571 3.59326 9.96573 4.49683 10.4258L10.5472 13.5063C11.0792 13.7772 11.3452 13.9126 11.6246 13.9659C11.8721 14.013 12.1262 14.013 12.3737 13.9659C12.6531 13.9126 12.9191 13.7772 13.451 13.5063L19.5014 10.4258C20.405 9.96573 20.8568 9.73571 21.0027 9.42584C21.1296 9.15611 21.1296 8.8438 21.0027 8.57407C20.8568 8.2642 20.405 8.03418 19.5014 7.57412L13.451 4.49359C12.9191 4.22273 12.6531 4.08731 12.3737 4.03404C12.1262 3.98686 11.8721 3.98686 11.6246 4.03404C11.3452 4.08731 11.0792 4.22273 10.5472 4.49359Z" stroke="black" stroke-width="2" stroke-linecap="round" stroke-linejoin="round"/>
</svg>
