<svg width="24" height="24" viewBox="0 0 24 24" fill="none" xmlns="http://www.w3.org/2000/svg">
<path d="M17.1432 21V12.6514C17.1432 12.2667 17.1432 12.0744 17.0881 11.9027C17.0394 11.7508 16.9597 11.6112 16.8543 11.4933C16.7352 11.3601 16.5717 11.2661 16.2445 11.078L12 8.63796M20.2429 10.3289V14.5814C20.2429 15.3907 20.2429 15.7954 20.1228 16.1526C20.0165 16.4685 19.8431 16.7563 19.6152 16.995C19.3574 17.265 19.0045 17.446 18.2988 17.8079L13.5728 20.2316C12.9961 20.5274 12.7078 20.6753 12.4053 20.7335C12.1374 20.785 11.8626 20.785 11.5947 20.7335C11.2922 20.6753 11.0039 20.5274 10.4272 20.2316L5.70124 17.8079C4.99551 17.446 4.64265 17.265 4.38484 16.995C4.15686 16.7563 3.98348 16.4685 3.87724 16.1526C3.7571 15.7954 3.7571 15.3907 3.7571 14.5814V10.3289M10.4043 3.55793L3.75457 7.03062C2.7615 7.54924 2.26496 7.80854 2.10466 8.15785C1.96511 8.46192 1.96511 8.81399 2.10466 9.11806C2.26496 9.46737 2.7615 9.72668 3.75457 10.2453L10.4043 13.718C10.9889 14.0233 11.2813 14.176 11.5884 14.236C11.8603 14.2892 12.1397 14.2892 12.4116 14.236C12.7187 14.176 13.0111 14.0233 13.5957 13.718L20.2454 10.2453C21.2385 9.72668 21.735 9.46737 21.8953 9.11806C22.0349 8.81399 22.0349 8.46192 21.8953 8.15785C21.735 7.80854 21.2385 7.54924 20.2454 7.03062L13.5957 3.55793C13.0111 3.2526 12.7187 3.09993 12.4116 3.03988C12.1397 2.98671 11.8603 2.98671 11.5884 3.03988C11.2813 3.09993 10.9889 3.2526 10.4043 3.55793Z" stroke="black" stroke-width="2" stroke-linecap="round" stroke-linejoin="round"/>
</svg>
