<svg width="12" height="12" viewBox="0 0 12 12" fill="none" xmlns="http://www.w3.org/2000/svg">
<path d="M2.625 1.5C1.867 1.5 1.25 2.117 1.25 2.875V9C1.25 9.82725 1.92275 10.5 2.75 10.5H6.01855C5.82355 10.1975 5.67829 9.8605 5.59229 9.5H2.75C2.47425 9.5 2.25 9.27575 2.25 9V4H9.75V5.65137C10.1165 5.76987 10.4532 5.95232 10.75 6.18457V2.875C10.75 2.117 10.133 1.5 9.375 1.5H2.625ZM3.375 5C3.32531 4.9993 3.27597 5.00848 3.22986 5.02701C3.18375 5.04554 3.14178 5.07305 3.10639 5.10794C3.071 5.14283 3.0429 5.18441 3.02372 5.23026C3.00454 5.2761 2.99466 5.3253 2.99466 5.375C2.99466 5.4247 3.00454 5.4739 3.02372 5.51974C3.0429 5.56559 3.071 5.60717 3.10639 5.64206C3.14178 5.67695 3.18375 5.70446 3.22986 5.72299C3.27597 5.74152 3.32531 5.7507 3.375 5.75H3.875C3.92469 5.7507 3.97403 5.74152 4.02014 5.72299C4.06625 5.70446 4.10822 5.67695 4.14361 5.64206C4.179 5.60717 4.2071 5.56559 4.22628 5.51974C4.24546 5.4739 4.25534 5.4247 4.25534 5.375C4.25534 5.3253 4.24546 5.2761 4.22628 5.23026C4.2071 5.18441 4.179 5.14283 4.14361 5.10794C4.10822 5.07305 4.06625 5.04554 4.02014 5.02701C3.97403 5.00848 3.92469 4.9993 3.875 5H3.375ZM5.375 5C5.168 5 5 5.16775 5 5.375C5 5.58225 5.168 5.75 5.375 5.75H7.49951C7.88451 5.58925 8.30675 5.5 8.75 5.5C8.8255 5.5 8.89938 5.50623 8.97363 5.51123C8.99013 5.46898 9 5.42325 9 5.375C9 5.16775 8.832 5 8.625 5H5.375ZM8.75 6C7.23125 6 6 7.23125 6 8.75C6 10.2688 7.23125 11.5 8.75 11.5C10.2688 11.5 11.5 10.2688 11.5 8.75C11.5 7.23125 10.2688 6 8.75 6ZM3.375 6.5C3.32531 6.4993 3.27597 6.50848 3.22986 6.52701C3.18375 6.54554 3.14178 6.57305 3.10639 6.60794C3.071 6.64283 3.0429 6.68441 3.02372 6.73026C3.00454 6.7761 2.99466 6.8253 2.99466 6.875C2.99466 6.9247 3.00454 6.9739 3.02372 7.01974C3.0429 7.06559 3.071 7.10717 3.10639 7.14206C3.14178 7.17695 3.18375 7.20446 3.22986 7.22299C3.27597 7.24152 3.32531 7.2507 3.375 7.25H3.875C3.92469 7.2507 3.97403 7.24152 4.02014 7.22299C4.06625 7.20446 4.10822 7.17695 4.14361 7.14206C4.179 7.10717 4.2071 7.06559 4.22628 7.01974C4.24546 6.9739 4.25534 6.9247 4.25534 6.875C4.25534 6.8253 4.24546 6.7761 4.22628 6.73026C4.2071 6.68441 4.179 6.64283 4.14361 6.60794C4.10822 6.57305 4.06625 6.54554 4.02014 6.52701C3.97403 6.50848 3.92469 6.4993 3.875 6.5H3.375ZM5.375 6.5C5.16775 6.5 5 6.66775 5 6.875C5 7.08225 5.16775 7.25 5.375 7.25H5.86865C6.0124 6.97425 6.1947 6.72225 6.4082 6.5H5.375ZM8.5 7C8.638 7 8.75 7.112 8.75 7.25V8.75H10C10.138 8.75 10.25 8.862 10.25 9C10.25 9.138 10.138 9.25 10 9.25H8.5C8.362 9.25 8.25 9.138 8.25 9V7.25C8.25 7.112 8.362 7 8.5 7ZM3.375 8C3.32531 7.9993 3.27597 8.00848 3.22986 8.02701C3.18375 8.04554 3.14178 8.07305 3.10639 8.10794C3.071 8.14283 3.0429 8.18441 3.02372 8.23026C3.00454 8.2761 2.99466 8.3253 2.99466 8.375C2.99466 8.4247 3.00454 8.4739 3.02372 8.51974C3.0429 8.56559 3.071 8.60717 3.10639 8.64206C3.14178 8.67695 3.18375 8.70446 3.22986 8.72299C3.27597 8.74152 3.32531 8.7507 3.375 8.75H3.875C3.92469 8.7507 3.97403 8.74152 4.02014 8.72299C4.06625 8.70446 4.10822 8.67695 4.14361 8.64206C4.179 8.60717 4.2071 8.56559 4.22628 8.51974C4.24546 8.4739 4.25534 8.4247 4.25534 8.375C4.25534 8.3253 4.24546 8.2761 4.22628 8.23026C4.2071 8.18441 4.179 8.14283 4.14361 8.10794C4.10822 8.07305 4.06625 8.04554 4.02014 8.02701C3.97403 8.00848 3.92469 7.9993 3.875 8H3.375ZM5.375 8C5.16775 8 5 8.16775 5 8.375C5 8.58225 5.16775 8.75 5.375 8.75H5.5C5.5 8.4915 5.53333 8.24125 5.59033 8H5.375Z" fill="black"/>
</svg>
