<svg width="70" height="70" viewBox="0 0 70 70" fill="none" xmlns="http://www.w3.org/2000/svg">
<path d="M34.9999 5.8335C18.9175 5.8335 5.83325 18.9178 5.83325 35.0002C5.83325 51.0826 18.9175 64.1668 34.9999 64.1668C51.0823 64.1668 64.1666 51.0826 64.1666 35.0002C64.1666 18.9178 51.0823 5.8335 34.9999 5.8335ZM34.9999 10.2085C48.7179 10.2085 59.7916 21.2822 59.7916 35.0002C59.7916 48.7181 48.7179 59.7918 34.9999 59.7918C21.2819 59.7918 10.2083 48.7181 10.2083 35.0002C10.2083 21.2822 21.2819 10.2085 34.9999 10.2085ZM34.9657 20.3855C34.3861 20.3946 33.8337 20.6333 33.43 21.0493C33.0262 21.4654 32.8041 22.0247 32.8124 22.6043V32.8127H22.6041C22.3142 32.8086 22.0264 32.8621 21.7574 32.9702C21.4884 33.0783 21.2436 33.2388 21.0372 33.4423C20.8307 33.6458 20.6668 33.8884 20.5549 34.1558C20.443 34.4233 20.3854 34.7103 20.3854 35.0002C20.3854 35.2901 20.443 35.5771 20.5549 35.8445C20.6668 36.1119 20.8307 36.3545 21.0372 36.558C21.2436 36.7615 21.4884 36.922 21.7574 37.0301C22.0264 37.1382 22.3142 37.1918 22.6041 37.1877H32.8124V47.396C32.8083 47.6859 32.8619 47.9737 32.97 48.2427C33.0781 48.5116 33.2385 48.7565 33.4421 48.9629C33.6456 49.1693 33.8881 49.3333 34.1556 49.4451C34.423 49.557 34.71 49.6146 34.9999 49.6146C35.2898 49.6146 35.5768 49.557 35.8443 49.4451C36.1117 49.3333 36.3542 49.1693 36.5578 48.9629C36.7613 48.7565 36.9218 48.5116 37.0299 48.2427C37.138 47.9737 37.1915 47.6859 37.1874 47.396V37.1877H47.3957C47.6856 37.1918 47.9734 37.1382 48.2424 37.0301C48.5114 36.922 48.7562 36.7615 48.9627 36.558C49.1691 36.3545 49.333 36.1119 49.4449 35.8445C49.5568 35.5771 49.6144 35.2901 49.6144 35.0002C49.6144 34.7103 49.5568 34.4233 49.4449 34.1558C49.333 33.8884 49.1691 33.6458 48.9627 33.4423C48.7562 33.2388 48.5114 33.0783 48.2424 32.9702C47.9734 32.8621 47.6856 32.8086 47.3957 32.8127H37.1874V22.6043C37.1916 22.3115 37.137 22.0209 37.0268 21.7496C36.9166 21.4783 36.7531 21.2319 36.5459 21.025C36.3387 20.8181 36.0921 20.6549 35.8207 20.545C35.5492 20.4352 35.2585 20.3809 34.9657 20.3855Z" fill="black"/>
</svg>
