<svg width="24" height="24" viewBox="0 0 24 24" fill="none" xmlns="http://www.w3.org/2000/svg">
<path fill-rule="evenodd" clip-rule="evenodd" d="M6 20V4L12 4L12 8C12 9.65685 13.3431 11 15 11H18V12V20H6ZM12 2H12.9985H13H13.0015L15.0388 2C15.6463 2 16.2209 2.27618 16.6005 2.75061L19.5617 6.45217C19.8454 6.80679 20 7.24742 20 7.70156V10V12V20C20 21.1046 19.1046 22 18 22H6C4.89543 22 4 21.1046 4 20V4C4 2.89543 4.89543 2 6 2L12 2ZM14 8V4L15.0387 4L18 7.70156V9H15C14.4477 9 14 8.55228 14 8ZM13 12.5C13 11.9477 12.5523 11.5 12 11.5C11.4477 11.5 11 11.9477 11 12.5V14H9.5C8.94772 14 8.5 14.4477 8.5 15C8.5 15.5523 8.94772 16 9.5 16H11V17.5C11 18.0523 11.4477 18.5 12 18.5C12.5523 18.5 13 18.0523 13 17.5V16H14.5C15.0523 16 15.5 15.5523 15.5 15C15.5 14.4477 15.0523 14 14.5 14H13V12.5Z" fill="#333333"/>
</svg>
