<svg width="24" height="24" viewBox="0 0 24 24" fill="none" xmlns="http://www.w3.org/2000/svg">
<path d="M20.2958 2.29287C20.6864 1.90249 21.3194 1.90239 21.7099 2.29287C22.1001 2.68336 22.1002 3.31647 21.7099 3.70693L13.415 12.0009L21.7099 20.2958C22.1 20.6863 22.1002 21.3195 21.7099 21.7099C21.3195 22.1001 20.6863 22.0999 20.2958 21.7099L12.0009 13.4149L3.70696 21.7099C3.31655 22.1 2.68337 22.0999 2.29289 21.7099C1.90237 21.3193 1.90236 20.6853 2.29289 20.2948L10.5868 12.0009L2.29289 3.70693C1.90237 3.31641 1.90237 2.68339 2.29289 2.29287C2.68342 1.90239 3.31644 1.90236 3.70696 2.29287L12.0009 10.5868L20.2958 2.29287Z" fill="#333333"/>
</svg>
