<svg width="24" height="24" viewBox="0 0 24 24" fill="none" xmlns="http://www.w3.org/2000/svg">
<path d="M14 2.23627V6.5C14 7.32843 14.6716 8 15.5 8H19.8858M9.81538 12.2214C9.99157 11.7205 10.3394 11.2981 10.7971 11.0291C11.2549 10.7601 11.7931 10.6617 12.3164 10.7515C12.8397 10.8412 13.3144 11.1133 13.6563 11.5195C13.9983 11.9257 14.1854 12.4398 14.1846 12.9708C14.1846 14.7191 11.9363 15.2191 11.9363 15.2191M11.9654 18.2191H11.9754M12.1329 2H8.8C7.11984 2 6.27976 2 5.63803 2.32698C5.07354 2.6146 4.6146 3.07354 4.32698 3.63803C4 4.27976 4 5.11984 4 6.8V17.2C4 18.8802 4 19.7202 4.32698 20.362C4.6146 20.9265 5.07354 21.3854 5.63803 21.673C6.27976 22 7.11984 22 8.8 22H15.2C16.8802 22 17.7202 22 18.362 21.673C18.9265 21.3854 19.3854 20.9265 19.673 20.362C20 19.7202 20 18.8802 20 17.2V9.61153C20 8.8337 20 8.44479 19.9077 8.0814C19.826 7.75932 19.6912 7.45307 19.5091 7.17515C19.3035 6.86158 19.0169 6.59878 18.4435 6.07319L15.3764 3.26166C14.8675 2.79522 14.6131 2.56199 14.322 2.39559C14.0639 2.24802 13.7853 2.13964 13.4953 2.07401C13.1683 2 12.8232 2 12.1329 2Z" stroke="black" stroke-width="2" stroke-linecap="round" stroke-linejoin="round"/>
</svg>
