<svg width="24" height="24" viewBox="0 0 24 24" fill="none" xmlns="http://www.w3.org/2000/svg">
<path d="M2 7V18.6C2 19.4401 2 19.8601 2.16349 20.181C2.3073 20.4632 2.53677 20.6927 2.81901 20.8365C3.13988 21 3.55992 21 4.4 21H4.6C5.44008 21 5.86012 21 6.18099 20.8365C6.46323 20.6927 6.6927 20.4632 6.83651 20.181C7 19.8601 7 19.4401 7 18.6M2 7V5.4C2 4.55992 2 4.13988 2.16349 3.81901C2.3073 3.53677 2.53677 3.3073 2.81901 3.16349C3.13988 3 3.55992 3 4.4 3H4.6C5.44008 3 5.86012 3 6.18099 3.16349C6.46323 3.3073 6.6927 3.53677 6.83651 3.81901C7 4.13988 7 4.55992 7 5.4M2 7H7M7 7V5.4M7 7V18.6M7 18.6L7 17M7 18.6C7 19.4401 7 19.8601 7.16349 20.181C7.3073 20.4632 7.53677 20.6927 7.81901 20.8365C8.13988 21 8.55992 21 9.4 21H9.6C10.4401 21 10.8601 21 11.181 20.8365C11.4632 20.6927 11.6927 20.4632 11.8365 20.181C12 19.8601 12 19.4401 12 18.6V17M7 5.4L7 17M7 5.4C7 4.55992 7 4.13988 7.16349 3.81901C7.3073 3.53677 7.53677 3.3073 7.81902 3.16349C8.13988 3 8.55992 3 9.4 3L9.6 3C10.4401 3 10.8601 3 11.181 3.16349C11.4632 3.3073 11.6927 3.53677 11.8365 3.81901C12 4.13988 12 4.55992 12 5.4L12 17M13.9005 7.81744L13.4864 6.27196C13.269 5.4605 13.1603 5.05478 13.2351 4.70253C13.301 4.39268 13.4633 4.11164 13.6987 3.89968C13.9663 3.65871 14.372 3.55 15.1835 3.33257L15.3766 3.28081C16.1881 3.06338 16.5938 2.95466 16.9461 3.02954C17.2559 3.0954 17.537 3.25766 17.7489 3.49306C17.9899 3.76068 18.0986 4.16641 18.316 4.97786L18.7301 6.52334M13.9005 7.81744L18.7301 6.52334M13.9005 7.81744L16.4887 17.4767M18.7301 6.52334L21.3183 16.1826M16.4887 17.4767L16.9028 19.0222C17.1202 19.8336 17.229 20.2394 17.4699 20.507C17.6819 20.7424 17.9629 20.9046 18.2728 20.9705C18.625 21.0454 19.0307 20.9367 19.8422 20.7192L20.0354 20.6675C20.8468 20.45 21.2526 20.3413 21.5202 20.1004C21.7556 19.8884 21.9179 19.6074 21.9837 19.2975C22.0586 18.9453 21.9499 18.5395 21.7324 17.7281L21.3183 16.1826M16.4887 17.4767L21.3183 16.1826M12 17H7" stroke="black" stroke-width="2" stroke-linecap="round"/>
</svg>
