<svg width="24" height="24" viewBox="0 0 24 24" fill="none" xmlns="http://www.w3.org/2000/svg">
<path d="M4.97363 15.7038L8.33673 19.0669M4.97363 15.7038C4.57526 16.1022 4.25886 16.5748 4.04234 17.0949L3.29253 18.8961C3.12519 19.298 3.04152 19.499 3.01836 19.625C2.8665 20.4514 3.58908 21.174 4.41548 21.0222C4.5415 20.999 4.74249 20.9153 5.14447 20.748L6.94563 19.9982C7.46574 19.7817 7.93836 19.4653 8.33673 19.0669M4.97363 15.7038L16.969 3.70842C17.8977 2.77973 19.4034 2.77973 20.3321 3.70842C21.2608 4.63711 21.2608 6.14282 20.3321 7.07152L8.33673 19.0669M12.0226 21.0442H21.0043" stroke="black" stroke-width="2" stroke-linecap="round" stroke-linejoin="round"/>
</svg>
