<svg width="24" height="24" viewBox="0 0 24 24" fill="none" xmlns="http://www.w3.org/2000/svg">
<path d="M12 20H19.6C20.4401 20 20.8601 20 21.181 19.8365C21.4632 19.6927 21.6927 19.4632 21.8365 19.181C22 18.8601 22 18.4401 22 17.6V6.4C22 5.55992 22 5.13988 21.8365 4.81901C21.6927 4.53677 21.4632 4.3073 21.181 4.16349C20.8601 4 20.4401 4 19.6 4H18.4C16.1598 4 15.0397 4 14.184 4.43597C13.4314 4.81947 12.8195 5.43139 12.436 6.18404C12 7.03968 12 8.15979 12 10.4M12 20V10.4M12 20H4.4C3.55992 20 3.13988 20 2.81901 19.8365C2.53677 19.6927 2.3073 19.4632 2.16349 19.181C2 18.8601 2 18.4401 2 17.6V6.4C2 5.55992 2 5.13988 2.16349 4.81901C2.3073 4.53677 2.53677 4.3073 2.81901 4.16349C3.13988 4 3.55992 4 4.4 4H5.6C7.84021 4 8.96031 4 9.81596 4.43597C10.5686 4.81947 11.1805 5.43139 11.564 6.18404C12 7.03968 12 8.15979 12 10.4" stroke="black" stroke-width="2" stroke-linecap="round"/>
</svg>
