<svg width="24" height="24" viewBox="0 0 24 24" fill="none" xmlns="http://www.w3.org/2000/svg">
<path fill-rule="evenodd" clip-rule="evenodd" d="M10.0034 17H15V11V10H12C10.3431 10 9 8.65685 9 7V3L4 3V17H9.99658C9.99772 17 9.99886 17 10 17C10.0011 17 10.0023 17 10.0034 17ZM9 19H4C2.89543 19 2 18.1046 2 17V3C2 1.89543 2.89543 1 4 1L10 1L12.0388 1C12.6463 1 13.2209 1.27618 13.6005 1.75061L16.5617 5.45217C16.8454 5.80679 17 6.24742 17 6.70156V8H20C21.1046 8 22 8.89543 22 10V21C22 22.1046 21.1046 23 20 23H11C9.89543 23 9 22.1046 9 21V19ZM17 10H20V21H11V19H15C16.1046 19 17 18.1046 17 17V11V10ZM15 8V6.70156L12.0387 3L11 3V7C11 7.55228 11.4477 8 12 8H15Z" fill="#333333"/>
</svg>
