<svg width="24" height="24" viewBox="0 0 24 24" fill="none" xmlns="http://www.w3.org/2000/svg">
<path d="M13.3001 4.21264V8.05C13.3001 8.79558 13.9045 9.4 14.6501 9.4H18.5974M11 1H13.6233C14.317 1 14.6639 1 14.9923 1.0747C15.2836 1.14095 15.5634 1.25033 15.8223 1.39922C16.1144 1.56712 16.3692 1.80239 16.879 2.27294L20.4557 5.57453C21.0247 6.09971 21.3092 6.36231 21.513 6.67504C21.6938 6.95223 21.8274 7.25741 21.9085 7.57822C22 7.94016 22 8.32731 22 9.10159V11M11.6197 4H8.62011C7.10797 4 6.3519 4 5.77434 4.29428C5.2663 4.55314 4.85325 4.96619 4.59439 5.47423C4.30011 6.05179 4.30011 6.80786 4.30011 8.32V17.68C4.30011 19.1921 4.30011 19.9482 4.59439 20.5258C4.85325 21.0338 5.2663 21.4469 5.77434 21.7057C6.3519 22 7.10797 22 8.62011 22H14.3801C15.8923 22 16.6483 22 17.2259 21.7057C17.7339 21.4469 18.147 21.0338 18.4058 20.5258C18.7001 19.9482 18.7001 19.1921 18.7001 17.68V10.8504C18.7001 10.1503 18.7001 9.80031 18.6171 9.47326C18.5435 9.18339 18.4222 8.90776 18.2583 8.65763C18.0733 8.37542 17.8153 8.13891 17.2992 7.66587L14.5388 5.13549C14.0809 4.71569 13.8519 4.50579 13.5899 4.35603C13.3576 4.22322 13.1069 4.12568 12.8459 4.06661C12.5516 4 12.241 4 11.6197 4Z" stroke="black" stroke-width="2" stroke-linecap="round"/>
</svg>
