<svg width="24" height="24" viewBox="0 0 24 24" fill="none" xmlns="http://www.w3.org/2000/svg">
<path d="M16.0508 2H10V9.51214C10 9.99577 10 10.2376 10.1009 10.3713C10.1888 10.4878 10.3232 10.56 10.4688 10.5691C10.636 10.5796 10.8377 10.4462 11.2412 10.1795L12.5842 9.29165C12.7437 9.18619 12.8235 9.13346 12.9096 9.11296C12.9857 9.09485 13.065 9.09485 13.1412 9.11296C13.2273 9.13346 13.307 9.18619 13.4666 9.29165L14.8096 10.1795C15.2131 10.4462 15.4148 10.5796 15.5819 10.5691C15.7276 10.56 15.862 10.4878 15.9499 10.3713C16.0508 10.2376 16.0508 9.99577 16.0508 9.51214V2Z" fill="black"/>
<path d="M19.9993 16H7.99929C7.06932 16 6.60433 16 6.22283 16.1022C5.18755 16.3796 4.37891 17.1883 4.10151 18.2235C4.05689 18.3901 4.03175 18.5725 4.01758 18.8026M8.8 22H17.6C18.4401 22 18.8601 22 19.181 21.8365C19.4632 21.6927 19.6927 21.4632 19.8365 21.181C20 20.8601 20 20.4401 20 19.6V4.4C20 3.55992 20 3.13988 19.8365 2.81901C19.6927 2.53677 19.4632 2.3073 19.181 2.16349C18.8601 2 18.4401 2 17.6 2H8.8C7.11984 2 6.27976 2 5.63803 2.32698C5.07354 2.6146 4.6146 3.07354 4.32698 3.63803C4 4.27976 4 5.11984 4 6.8V17.2C4 18.8802 4 19.7202 4.32698 20.362C4.6146 20.9265 5.07354 21.3854 5.63803 21.673C6.27976 22 7.11984 22 8.8 22ZM10 2H16.0508V9.51214C16.0508 9.99577 16.0508 10.2376 15.9499 10.3713C15.862 10.4878 15.7276 10.56 15.5819 10.5691C15.4148 10.5796 15.2131 10.4462 14.8096 10.1795L13.4666 9.29165C13.307 9.18619 13.2273 9.13346 13.1412 9.11296C13.065 9.09485 12.9857 9.09485 12.9096 9.11296C12.8235 9.13346 12.7437 9.18619 12.5842 9.29165L11.2412 10.1795C10.8377 10.4462 10.636 10.5796 10.4688 10.5691C10.3232 10.56 10.1888 10.4878 10.1009 10.3713C10 10.2376 10 9.99577 10 9.51214V2Z" stroke="black" stroke-width="2" stroke-linecap="round"/>
</svg>
