<svg width="24" height="24" viewBox="0 0 24 24" fill="none" xmlns="http://www.w3.org/2000/svg">
<path d="M19.9993 16H7.99929C7.06932 16 6.60433 16 6.22283 16.1022C5.18755 16.3796 4.37891 17.1883 4.10151 18.2235C4.05689 18.3901 4.03175 18.5725 4.01758 18.8026M10 2H16.0508M8.8 22H17.6C18.4401 22 18.8601 22 19.181 21.8365C19.4632 21.6927 19.6927 21.4632 19.8365 21.181C20 20.8601 20 20.4401 20 19.6V4.4C20 3.55992 20 3.13988 19.8365 2.81901C19.6927 2.53677 19.4632 2.3073 19.181 2.16349C18.8601 2 18.4401 2 17.6 2H8.8C7.11984 2 6.27976 2 5.63803 2.32698C5.07354 2.6146 4.6146 3.07354 4.32698 3.63803C4 4.27976 4 5.11984 4 6.8V17.2C4 18.8802 4 19.7202 4.32698 20.362C4.6146 20.9265 5.07354 21.3854 5.63803 21.673C6.27976 22 7.11984 22 8.8 22Z" stroke="black" stroke-width="2" stroke-linecap="round"/>
</svg>
