<svg width="54" height="54" viewBox="0 0 54 54" fill="none" xmlns="http://www.w3.org/2000/svg">
<path d="M10.2292 0.833496C5.02009 0.833496 0.75 5.10359 0.75 10.3127V43.8543C0.75 49.0634 5.02009 53.3335 10.2292 53.3335H43.7708C48.9799 53.3335 53.25 49.0634 53.25 43.8543V10.3127C53.25 5.10359 48.9799 0.833496 43.7708 0.833496H10.2292ZM10.2292 5.2085H43.7708C46.6147 5.2085 48.875 7.46882 48.875 10.3127V12.5002H5.125V10.3127C5.125 7.46882 7.38533 5.2085 10.2292 5.2085ZM5.125 16.8752H48.875V43.8543C48.875 46.6982 46.6147 48.9585 43.7708 48.9585H10.2292C7.38533 48.9585 5.125 46.6982 5.125 43.8543V16.8752ZM14.6042 22.7085C13.6372 22.7085 12.7099 23.0926 12.0262 23.7763C11.3424 24.4601 10.9583 25.3874 10.9583 26.3543C10.9583 27.3213 11.3424 28.2486 12.0262 28.9323C12.7099 29.6161 13.6372 30.0002 14.6042 30.0002C15.5711 30.0002 16.4984 29.6161 17.1822 28.9323C17.8659 28.2486 18.25 27.3213 18.25 26.3543C18.25 25.3874 17.8659 24.4601 17.1822 23.7763C16.4984 23.0926 15.5711 22.7085 14.6042 22.7085ZM27 22.7085C26.0331 22.7085 25.1057 23.0926 24.422 23.7763C23.7383 24.4601 23.3542 25.3874 23.3542 26.3543C23.3542 27.3213 23.7383 28.2486 24.422 28.9323C25.1057 29.6161 26.0331 30.0002 27 30.0002C27.9669 30.0002 28.8943 29.6161 29.578 28.9323C30.2617 28.2486 30.6458 27.3213 30.6458 26.3543C30.6458 25.3874 30.2617 24.4601 29.578 23.7763C28.8943 23.0926 27.9669 22.7085 27 22.7085ZM39.3958 22.7085C38.4289 22.7085 37.5016 23.0926 36.8178 23.7763C36.1341 24.4601 35.75 25.3874 35.75 26.3543C35.75 27.3213 36.1341 28.2486 36.8178 28.9323C37.5016 29.6161 38.4289 30.0002 39.3958 30.0002C40.3628 30.0002 41.2901 29.6161 41.9738 28.9323C42.6576 28.2486 43.0417 27.3213 43.0417 26.3543C43.0417 25.3874 42.6576 24.4601 41.9738 23.7763C41.2901 23.0926 40.3628 22.7085 39.3958 22.7085ZM14.6042 35.8335C13.6372 35.8335 12.7099 36.2176 12.0262 36.9013C11.3424 37.5851 10.9583 38.5124 10.9583 39.4793C10.9583 40.4463 11.3424 41.3736 12.0262 42.0573C12.7099 42.7411 13.6372 43.1252 14.6042 43.1252C15.5711 43.1252 16.4984 42.7411 17.1822 42.0573C17.8659 41.3736 18.25 40.4463 18.25 39.4793C18.25 38.5124 17.8659 37.5851 17.1822 36.9013C16.4984 36.2176 15.5711 35.8335 14.6042 35.8335ZM27 35.8335C26.0331 35.8335 25.1057 36.2176 24.422 36.9013C23.7383 37.5851 23.3542 38.5124 23.3542 39.4793C23.3542 40.4463 23.7383 41.3736 24.422 42.0573C25.1057 42.7411 26.0331 43.1252 27 43.1252C27.9669 43.1252 28.8943 42.7411 29.578 42.0573C30.2617 41.3736 30.6458 40.4463 30.6458 39.4793C30.6458 38.5124 30.2617 37.5851 29.578 36.9013C28.8943 36.2176 27.9669 35.8335 27 35.8335Z" fill="#9A80A7"/>
</svg>
