<svg width="24" height="24" viewBox="0 0 24 24" fill="none" xmlns="http://www.w3.org/2000/svg">
<path d="M16.2002 2C17.0237 2 17.7016 1.99898 18.252 2.04395C18.814 2.08988 19.3311 2.18827 19.8164 2.43555C20.5689 2.81902 21.181 3.43109 21.5645 4.1836C21.8117 4.6689 21.9101 5.18599 21.9561 5.74805C22.001 6.29843 22 6.97632 22 7.79981V16.2002C22 17.0237 22.001 17.7016 21.9561 18.252C21.9101 18.814 21.8117 19.3311 21.5645 19.8164C21.181 20.5689 20.5689 21.181 19.8164 21.5645C19.3311 21.8117 18.814 21.9101 18.252 21.9561C17.7016 22.001 17.0237 22 16.2002 22H7.79981C6.97632 22 6.29843 22.001 5.74805 21.9561C5.18599 21.9101 4.6689 21.8117 4.1836 21.5645C3.43109 21.181 2.81902 20.5689 2.43555 19.8164C2.18827 19.3311 2.08988 18.814 2.04395 18.252C1.99898 17.7016 2 17.0237 2 16.2002V7.79981C2 6.97632 1.99898 6.29843 2.04395 5.74805C2.08988 5.18599 2.18827 4.6689 2.43555 4.1836C2.81902 3.43109 3.43109 2.81902 4.1836 2.43555C4.6689 2.18827 5.18599 2.08988 5.74805 2.04395C6.29843 1.99898 6.97632 2 7.79981 2H16.2002ZM6.5 14C5.94772 14 5.5 14.4477 5.5 15C5.5 15.5523 5.94772 16 6.5 16H9C9.55228 16 10 15.5523 10 15C10 14.4477 9.55229 14 9 14H6.5ZM6.5 10C5.94772 10 5.5 10.4477 5.5 11C5.5 11.5523 5.94772 12 6.5 12H14.5C15.0523 12 15.5 11.5523 15.5 11C15.5 10.4477 15.0523 10 14.5 10H6.5ZM6.5 6C5.94772 6 5.5 6.44772 5.5 7C5.5 7.55229 5.94772 8 6.5 8H17.5C18.0523 8 18.5 7.55229 18.5 7C18.5 6.44772 18.0523 6 17.5 6H6.5Z" fill="black"/>
</svg>
