<svg width="54" height="54" viewBox="0 0 54 54" fill="none" xmlns="http://www.w3.org/2000/svg">
<path d="M5.85417 53.25C3.06152 53.25 0.75 50.9385 0.75 48.1458V33.5625C0.75 30.7699 3.06152 28.4583 5.85417 28.4583H20.4375C23.2301 28.4583 25.5417 30.7699 25.5417 33.5625V48.1458C25.5417 50.9385 23.2301 53.25 20.4375 53.25H5.85417ZM33.5625 53.25C30.7699 53.25 28.4583 50.9385 28.4583 48.1458V33.5625C28.4583 30.7699 30.7699 28.4583 33.5625 28.4583H48.1458C50.9385 28.4583 53.25 30.7699 53.25 33.5625V48.1458C53.25 50.9385 50.9385 53.25 48.1458 53.25H33.5625ZM5.125 48.875H21.1667V33.5625C21.1667 33.1322 20.8678 32.8333 20.4375 32.8333H5.85417C5.42389 32.8333 5.125 33.1322 5.125 33.5625V48.875ZM32.8333 48.875H48.875V33.5625C48.875 33.1322 48.5761 32.8333 48.1458 32.8333H33.5625C33.1322 32.8333 32.8333 33.1322 32.8333 33.5625V48.875ZM5.85417 25.5417C3.06152 25.5417 0.75 23.2301 0.75 20.4375V5.85417C0.75 3.06152 3.06152 0.749999 5.85417 0.749999H20.4375C23.2301 0.749999 25.5417 3.06152 25.5417 5.85417V20.4375C25.5417 23.2301 23.2301 25.5417 20.4375 25.5417H5.85417ZM33.5625 25.5417C30.7699 25.5417 28.4583 23.2301 28.4583 20.4375V5.85417C28.4583 3.06152 30.7699 0.749999 33.5625 0.749999H48.1458C50.9385 0.749999 53.25 3.06152 53.25 5.85417V20.4375C53.25 23.2301 50.9385 25.5417 48.1458 25.5417H33.5625ZM5.125 21.1667H21.1667V5.85417C21.1667 5.42389 20.8678 5.125 20.4375 5.125H5.85417C5.42389 5.125 5.125 5.42389 5.125 5.85417V21.1667ZM32.8333 21.1667H48.875V5.85417C48.875 5.42389 48.5761 5.125 48.1458 5.125H33.5625C33.1322 5.125 32.8333 5.42389 32.8333 5.85417V21.1667Z" fill="#9A80A7"/>
</svg>
