<svg width="30" height="30" viewBox="0 0 30 30" fill="none" xmlns="http://www.w3.org/2000/svg">
<path d="M26.8501 5.61279C26.5254 5.62246 26.2172 5.75819 25.9908 5.99121L10.6246 21.3574L4.00834 14.7412C3.89316 14.6212 3.7552 14.5255 3.60254 14.4595C3.44988 14.3935 3.28559 14.3586 3.11929 14.3569C2.95299 14.3553 2.78802 14.3868 2.63405 14.4496C2.48008 14.5125 2.3402 14.6054 2.2226 14.723C2.105 14.8406 2.01205 14.9805 1.94919 15.1345C1.88633 15.2885 1.85482 15.4534 1.85651 15.6197C1.8582 15.786 1.89306 15.9503 1.95904 16.103C2.02502 16.2556 2.1208 16.3936 2.24077 16.5088L9.74077 24.0088C9.97519 24.2431 10.2931 24.3748 10.6246 24.3748C10.956 24.3748 11.2739 24.2431 11.5083 24.0088L27.7583 7.75878C27.939 7.5832 28.0623 7.35715 28.1123 7.11025C28.1622 6.86335 28.1364 6.60712 28.0383 6.37514C27.9401 6.14316 27.7741 5.94625 27.5621 5.81021C27.3501 5.67418 27.1019 5.60536 26.8501 5.61279Z" fill="black"/>
</svg>
