<svg width="24" height="24" viewBox="0 0 24 24" fill="none" xmlns="http://www.w3.org/2000/svg">
<path d="M4.97445 15.7038L16.9698 3.7084C17.8985 2.77971 19.4042 2.77971 20.3329 3.7084C21.2616 4.6371 21.2616 6.14281 20.3329 7.0715L8.33755 19.0669M4.97445 15.7038L8.33755 19.0669M4.97445 15.7038C4.57608 16.1021 4.25968 16.5748 4.04316 17.0949L3.29335 18.896C3.12601 19.298 3.04234 19.499 3.01918 19.625C2.86732 20.4514 3.58989 21.174 4.4163 21.0221C4.54232 20.999 4.74331 20.9153 5.14528 20.748L6.94645 19.9982C7.46656 19.7816 7.93917 19.4652 8.33755 19.0669" stroke="black" stroke-width="2" stroke-linecap="round" stroke-linejoin="round"/>
</svg>
