<svg width="70" height="70" viewBox="0 0 70 70" fill="none" xmlns="http://www.w3.org/2000/svg">
<path d="M59.0624 8.75C58.5028 8.75 57.9431 8.96358 57.5158 9.39087L31.3 35.6095L29.1666 40.8333L34.3904 38.7L60.609 12.4841C61.4622 11.6295 61.4622 10.2455 60.609 9.39087C60.1818 8.96358 59.6221 8.75 59.0624 8.75ZM18.2291 10.2083C13.8252 10.2083 10.2083 13.8253 10.2083 18.2292V51.7708C10.2083 56.1747 13.8252 59.7917 18.2291 59.7917H51.7707C56.1746 59.7917 59.7916 56.1747 59.7916 51.7708V26.9792C59.7957 26.6893 59.7421 26.4015 59.634 26.1325C59.5259 25.8635 59.3655 25.6187 59.1619 25.4123C58.9584 25.2058 58.7159 25.0419 58.4484 24.93C58.181 24.8181 57.894 24.7605 57.6041 24.7605C57.3142 24.7605 57.0272 24.8181 56.7597 24.93C56.4923 25.0419 56.2498 25.2058 56.0462 25.4123C55.8427 25.6187 55.6822 25.8635 55.5741 26.1325C55.466 26.4015 55.4125 26.6893 55.4166 26.9792V51.7708C55.4166 53.8099 53.8098 55.4167 51.7707 55.4167H18.2291C16.19 55.4167 14.5833 53.8099 14.5833 51.7708V18.2292C14.5833 16.1901 16.19 14.5833 18.2291 14.5833H43.0208C43.3106 14.5874 43.5984 14.5339 43.8674 14.4258C44.1364 14.3177 44.3812 14.1572 44.5877 13.9537C44.7941 13.7501 44.958 13.5076 45.0699 13.2402C45.1818 12.9727 45.2394 12.6857 45.2394 12.3958C45.2394 12.1059 45.1818 11.8189 45.0699 11.5515C44.958 11.2841 44.7941 11.0415 44.5877 10.838C44.3812 10.6344 44.1364 10.474 43.8674 10.3659C43.5984 10.2578 43.3106 10.2042 43.0208 10.2083H18.2291Z" fill="black"/>
</svg>
