<svg width="24" height="24" viewBox="0 0 24 24" fill="none" xmlns="http://www.w3.org/2000/svg">
<path d="M18.5767 18.3881H19.5767V18.3881H18.5767ZM17.6713 21.3079L18.5958 21.689L18.5958 21.6889L17.6713 21.3079ZM15.4522 21.3079L14.5277 21.6889L14.5277 21.689L15.4522 21.3079ZM18.3012 19.7795L19.2257 20.1606V20.1606L18.3012 19.7795ZM18.5766 4.01489H17.5766V4.01489H18.5766ZM14.5469 4.01489H13.5469V4.01489H14.5469ZM14.8224 19.7795L15.7469 19.3985L15.7469 19.3985L14.8224 19.7795ZM6.20134 3.36412C5.85402 2.93472 5.22437 2.86817 4.79496 3.21548C4.36555 3.5628 4.299 4.19245 4.64632 4.62186L6.20134 3.36412ZM6.75085 5.63367L7.52836 5.0048L7.52836 5.0048L6.75085 5.63367ZM7.32077 5.63367L6.54326 5.0048H6.54326L7.32077 5.63367ZM11.0373 2.62887C11.3846 2.19946 11.318 1.5698 10.8886 1.22249C10.4592 0.875174 9.82957 0.941723 9.48225 1.37113L11.0373 2.62887ZM6.34782 19.5845C6.00051 19.1551 5.37085 19.0885 4.94144 19.4358C4.51204 19.7831 4.44549 20.4128 4.7928 20.8422L6.34782 19.5845ZM6.89733 21.854L6.11982 22.4829H6.11982L6.89733 21.854ZM7.46725 21.854L6.68974 21.2251H6.68974L7.46725 21.854ZM11.1838 18.8492C11.5311 18.4198 11.4645 17.7901 11.0351 17.4428C10.6057 17.0955 9.97605 17.1621 9.62874 17.5915L11.1838 18.8492ZM6.13093 9.66557C5.74041 9.27505 5.10725 9.27505 4.71672 9.66557C4.3262 10.0561 4.3262 10.6893 4.71672 11.0798L6.13093 9.66557ZM8.7011 15.0642C9.09162 15.4547 9.72479 15.4547 10.1153 15.0642C10.5058 14.6736 10.5058 14.0405 10.1153 13.6499L8.7011 15.0642ZM10.1153 11.0798C10.5058 10.6893 10.5058 10.0561 10.1153 9.66557C9.72479 9.27505 9.09162 9.27505 8.7011 9.66557L10.1153 11.0798ZM4.71672 13.6499C4.3262 14.0405 4.3262 14.6736 4.71672 15.0642C5.10725 15.4547 5.74041 15.4547 6.13093 15.0642L4.71672 13.6499ZM17.3766 19.3985L16.7467 20.9268L18.5958 21.6889L19.2257 20.1606L17.3766 19.3985ZM16.3768 20.9268L15.7469 19.3985L13.8978 20.1606L14.5277 21.6889L16.3768 20.9268ZM15.5469 18.3881L15.5469 4.01489H13.5469L13.5469 18.3881H15.5469ZM17.5766 4.01489L17.5767 18.3881H19.5767L19.5766 4.01489H17.5766ZM14.5469 19.3881H18.5767V17.3881H14.5469V19.3881ZM16.7468 20.9268C16.7244 20.9811 16.6972 21.0058 16.6744 21.0203C16.6468 21.0377 16.6078 21.0505 16.5618 21.0505C16.5158 21.0505 16.4767 21.0377 16.4491 21.0203C16.4263 21.0058 16.3992 20.9811 16.3768 20.9268L14.5277 21.689C15.276 23.5044 17.8475 23.5044 18.5958 21.689L16.7468 20.9268ZM19.2257 20.1606C19.4574 19.5984 19.5767 18.9962 19.5767 18.3881H17.5767C17.5767 18.7348 17.5087 19.078 17.3766 19.3985L19.2257 20.1606ZM16.5618 3C17.1223 3 17.5766 3.45438 17.5766 4.01489H19.5766C19.5766 2.34981 18.2268 1 16.5618 1V3ZM16.5618 1C14.8967 1 13.5469 2.34981 13.5469 4.01489H15.5469C15.5469 3.45438 16.0013 3 16.5618 3V1ZM15.7469 19.3985C15.6148 19.078 15.5469 18.7348 15.5469 18.3881H13.5469C13.5469 18.9962 13.6661 19.5984 13.8978 20.1606L15.7469 19.3985ZM4.64632 4.62186L5.97334 6.26254L7.52836 5.0048L6.20134 3.36412L4.64632 4.62186ZM8.09828 6.26254L11.0373 2.62887L9.48225 1.37113L6.54326 5.0048L8.09828 6.26254ZM5.97334 6.26254C6.2235 6.57184 6.6027 6.77961 7.03581 6.7796C7.46892 6.7796 7.84811 6.57184 8.09828 6.26254L6.54326 5.0048C6.63604 4.89008 6.80897 4.77961 7.0358 4.77961C7.26264 4.7796 7.43557 4.89008 7.52836 5.0048L5.97334 6.26254ZM4.7928 20.8422L6.11982 22.4829L7.67484 21.2251L6.34782 19.5845L4.7928 20.8422ZM8.24476 22.4829L11.1838 18.8492L9.62874 17.5915L6.68974 21.2251L8.24476 22.4829ZM6.11982 22.4829C6.36999 22.7922 6.74919 22.9999 7.1823 22.9999C7.6154 22.9999 7.9946 22.7922 8.24476 22.4829L6.68974 21.2251C6.78253 21.1104 6.95545 20.9999 7.18229 20.9999C7.40912 20.9999 7.58205 21.1104 7.67484 21.2251L6.11982 22.4829ZM4.71672 11.0798L6.70891 13.072L8.12312 11.6578L6.13093 9.66557L4.71672 11.0798ZM6.70891 13.072L8.7011 15.0642L10.1153 13.6499L8.12312 11.6578L6.70891 13.072ZM8.7011 9.66557L6.70891 11.6578L8.12312 13.072L10.1153 11.0798L8.7011 9.66557ZM6.70891 11.6578L4.71672 13.6499L6.13093 15.0642L8.12312 13.072L6.70891 11.6578Z" fill="black"/>
</svg>
