<svg width="70" height="70" viewBox="0 0 70 70" fill="none" xmlns="http://www.w3.org/2000/svg">
<path d="M60.4782 7.27165C60.3991 7.27402 60.3202 7.28067 60.2418 7.29159H40.1042C39.8144 7.28749 39.5266 7.34104 39.2576 7.44914C38.9886 7.55723 38.7438 7.71771 38.5373 7.92124C38.3309 8.12477 38.167 8.36731 38.0551 8.63475C37.9432 8.90218 37.8856 9.18919 37.8856 9.47909C37.8856 9.76899 37.9432 10.056 38.0551 10.3234C38.167 10.5909 38.3309 10.8334 38.5373 11.0369C38.7438 11.2405 38.9886 11.401 39.2576 11.509C39.5266 11.6171 39.8144 11.6707 40.1042 11.6666H55.2402L32.7243 34.1825C32.5143 34.384 32.3467 34.6255 32.2313 34.8926C32.1158 35.1598 32.0548 35.4473 32.0519 35.7383C32.0489 36.0293 32.104 36.318 32.214 36.5875C32.3241 36.8569 32.4867 37.1017 32.6925 37.3075C32.8983 37.5133 33.1431 37.676 33.4125 37.786C33.682 37.896 33.9707 37.9511 34.2617 37.9481C34.5527 37.9452 34.8402 37.8842 35.1074 37.7687C35.3745 37.6533 35.616 37.4857 35.8175 37.2757L58.3334 14.7599V29.8958C58.3293 30.1856 58.3829 30.4734 58.491 30.7424C58.5991 31.0114 58.7595 31.2562 58.9631 31.4627C59.1666 31.6691 59.4091 31.833 59.6766 31.9449C59.944 32.0568 60.231 32.1144 60.5209 32.1144C60.8108 32.1144 61.0978 32.0568 61.3653 31.9449C61.6327 31.833 61.8752 31.6691 62.0788 31.4627C62.2823 31.2562 62.4428 31.0114 62.5509 30.7424C62.659 30.4734 62.7125 30.1856 62.7084 29.8958V9.75538C62.7515 9.44065 62.7256 9.12031 62.6324 8.81662C62.5392 8.51293 62.381 8.23318 62.1687 7.99682C61.9565 7.76046 61.6953 7.57315 61.4034 7.44792C61.1114 7.32269 60.7957 7.26254 60.4782 7.27165ZM18.2292 11.6666C12.2144 11.6666 7.29175 16.5892 7.29175 22.6041V51.7708C7.29175 57.7857 12.2144 62.7083 18.2292 62.7083H47.3959C53.4108 62.7083 58.3334 57.7857 58.3334 51.7708V37.1874C58.3375 36.8976 58.284 36.6098 58.1759 36.3408C58.0678 36.0718 57.9073 35.8269 57.7038 35.6205C57.5002 35.4141 57.2577 35.2502 56.9903 35.1383C56.7228 35.0264 56.4358 34.9688 56.1459 34.9688C55.856 34.9688 55.569 35.0264 55.3016 35.1383C55.0341 35.2502 54.7916 35.4141 54.5881 35.6205C54.3845 35.8269 54.2241 36.0718 54.116 36.3408C54.0079 36.6098 53.9543 36.8976 53.9584 37.1874V51.7708C53.9584 55.4217 51.0468 58.3333 47.3959 58.3333H18.2292C14.5783 58.3333 11.6667 55.4217 11.6667 51.7708V22.6041C11.6667 18.9532 14.5783 16.0416 18.2292 16.0416H32.8126C33.1024 16.0457 33.3902 15.9921 33.6592 15.884C33.9282 15.776 34.1731 15.6155 34.3795 15.4119C34.5859 15.2084 34.7498 14.9659 34.8617 14.6984C34.9736 14.431 35.0312 14.144 35.0312 13.8541C35.0312 13.5642 34.9736 13.2772 34.8617 13.0097C34.7498 12.7423 34.5859 12.4998 34.3795 12.2962C34.1731 12.0927 33.9282 11.9322 33.6592 11.8241C33.3902 11.716 33.1024 11.6625 32.8126 11.6666H18.2292Z" fill="black"/>
</svg>
