<svg width="60" height="60" viewBox="0 0 60 60" fill="none" xmlns="http://www.w3.org/2000/svg">
<path d="M29.9999 0.833496C13.9175 0.833496 0.833252 13.9178 0.833252 30.0002C0.833252 46.0826 13.9175 59.1668 29.9999 59.1668C46.0823 59.1668 59.1666 46.0826 59.1666 30.0002C59.1666 13.9178 46.0823 0.833496 29.9999 0.833496ZM29.9999 5.2085C43.7179 5.2085 54.7916 16.2822 54.7916 30.0002C54.7916 43.7181 43.7179 54.7918 29.9999 54.7918C16.2819 54.7918 5.20825 43.7181 5.20825 30.0002C5.20825 16.2822 16.2819 5.2085 29.9999 5.2085ZM29.9999 13.9585C25.1934 13.9585 21.2499 17.902 21.2499 22.7085V23.4377C21.2458 23.7275 21.2994 24.0153 21.4075 24.2843C21.5156 24.5533 21.676 24.7981 21.8796 25.0046C22.0831 25.211 22.3256 25.3749 22.5931 25.4868C22.8605 25.5987 23.1475 25.6563 23.4374 25.6563C23.7273 25.6563 24.0143 25.5987 24.2818 25.4868C24.5492 25.3749 24.7917 25.211 24.9953 25.0046C25.1988 24.7981 25.3593 24.5533 25.4674 24.2843C25.5755 24.0153 25.629 23.7275 25.6249 23.4377V22.7085C25.6249 20.267 27.5585 18.3335 29.9999 18.3335C32.4414 18.3335 34.3749 20.267 34.3749 22.7085C34.3749 26.1223 33.4873 26.5501 31.9311 27.7728C31.1529 28.3841 30.1337 29.089 29.2622 30.2764C28.3907 31.4639 27.8124 33.1192 27.8124 35.1043C27.8083 35.3942 27.8619 35.682 27.97 35.951C28.0781 36.22 28.2385 36.4648 28.4421 36.6712C28.6456 36.8777 28.8881 37.0416 29.1556 37.1535C29.423 37.2654 29.71 37.323 29.9999 37.323C30.2898 37.323 30.5768 37.2654 30.8443 37.1535C31.1117 37.0416 31.3542 36.8777 31.5578 36.6712C31.7613 36.4648 31.9218 36.22 32.0299 35.951C32.138 35.682 32.1915 35.3942 32.1874 35.1043C32.1874 33.86 32.4295 33.3546 32.7884 32.8656C33.1473 32.3765 33.7688 31.8912 34.6313 31.2135C36.3563 29.8583 38.7499 27.3155 38.7499 22.7085C38.7499 17.902 34.8064 13.9585 29.9999 13.9585ZM29.9999 41.6668C29.2264 41.6668 28.4845 41.9741 27.9375 42.5211C27.3905 43.0681 27.0833 43.8099 27.0833 44.5835C27.0833 45.357 27.3905 46.0989 27.9375 46.6459C28.4845 47.1929 29.2264 47.5002 29.9999 47.5002C30.7735 47.5002 31.5153 47.1929 32.0623 46.6459C32.6093 46.0989 32.9166 45.357 32.9166 44.5835C32.9166 43.8099 32.6093 43.0681 32.0623 42.5211C31.5153 41.9741 30.7735 41.6668 29.9999 41.6668Z" fill="#9A80A7"/>
</svg>
