<svg width="24" height="24" viewBox="0 0 24 24" fill="none" xmlns="http://www.w3.org/2000/svg">
<path d="M17.3874 17.6662C16.0017 18.4536 14.235 19 12 19C6.16863 19 3.52522 15.2807 2.52058 13.2643C2.42052 13.0634 2.37049 12.963 2.29353 12.5514C2.25256 12.3323 2.2526 11.6673 2.29359 11.4483C2.37061 11.0367 2.42079 10.936 2.52115 10.7346C3.10084 9.5714 4.2256 7.84229 6.19251 6.58702M20.4029 15C20.8782 14.3726 21.2288 13.7671 21.4784 13.2664C21.579 13.0645 21.6293 12.9636 21.7064 12.5519C21.7474 12.3329 21.7474 11.6677 21.7065 11.4487C21.6295 11.037 21.5795 10.9366 21.4794 10.7357C20.4748 8.71928 17.8314 5 12 5C11.5479 5 11.1149 5.02236 10.7004 5.06455M14 14.2361C13.4692 14.7111 12.7684 15 12 15C10.3431 15 9 13.6569 9 12C9 11.2316 9.28885 10.5308 9.76389 10M22 22L2 2" stroke="black" stroke-width="2" stroke-linecap="round" stroke-linejoin="round"/>
</svg>
