<svg width="24" height="24" viewBox="0 0 24 24" fill="none" xmlns="http://www.w3.org/2000/svg">
<path d="M2.52059 13.2643C2.42054 13.0635 2.37052 12.9631 2.29355 12.5515C2.25257 12.3324 2.25257 11.6676 2.29355 11.4485C2.37052 11.0369 2.42054 10.9365 2.52059 10.7357C3.52523 8.71928 6.16864 5 12 5C17.8314 5 20.4748 8.71928 21.4794 10.7357C21.5795 10.9365 21.6295 11.0369 21.7065 11.4485C21.7474 11.6676 21.7474 12.3324 21.7065 12.5515C21.6295 12.9631 21.5795 13.0635 21.4794 13.2643C20.4748 15.2807 17.8314 19 12 19C6.16864 19 3.52523 15.2807 2.52059 13.2643Z" stroke="black" stroke-width="2" stroke-linecap="round" stroke-linejoin="round"/>
<path d="M15 12C15 13.6569 13.6569 15 12 15C10.3432 15 9.00001 13.6569 9.00001 12C9.00001 10.3431 10.3432 9 12 9C13.6569 9 15 10.3431 15 12Z" stroke="black" stroke-width="2" stroke-linecap="round" stroke-linejoin="round"/>
</svg>
