<svg width="24" height="24" viewBox="0 0 24 24" fill="none" xmlns="http://www.w3.org/2000/svg">
<path d="M8.74275 4.19452C9.89136 3.13336 10.4657 2.60278 11.1182 2.40211C11.6928 2.22542 12.3072 2.22542 12.8818 2.40211C13.5343 2.60278 14.1086 3.13336 15.2572 4.19452L18.943 7.59966C19.7009 8.29983 20.0798 8.64992 20.3514 9.06676C20.5921 9.43623 20.7701 9.84296 20.8781 10.2705C21 10.7529 21 11.2688 21 12.3006V16.2C21 17.8802 21 18.7202 20.673 19.362C20.3854 19.9265 19.9265 20.3854 19.362 20.673C18.7202 21 17.8802 21 16.2 21H7.8C6.11984 21 5.27976 21 4.63803 20.673C4.07354 20.3854 3.6146 19.9265 3.32698 19.362C3 18.7202 3 17.8802 3 16.2L3 12.3006C3 11.2688 3 10.7529 3.12187 10.2705C3.2299 9.84296 3.40788 9.43623 3.6486 9.06676C3.9202 8.64992 4.29913 8.29983 5.057 7.59966L8.74275 4.19452Z" stroke="black" stroke-width="2" stroke-linecap="round" stroke-linejoin="round"/>
<path d="M9 16C9 15.0681 9 14.6022 9.15224 14.2346C9.35523 13.7446 9.74458 13.3552 10.2346 13.1522C10.6022 13 11.0681 13 12 13C12.9319 13 13.3978 13 13.7654 13.1522C14.2554 13.3552 14.6448 13.7446 14.8478 14.2346C15 14.6022 15 15.0681 15 16V21H9V16Z" stroke="black" stroke-width="2" stroke-linecap="round" stroke-linejoin="round"/>
</svg>
