<svg width="24" height="24" viewBox="0 0 24 24" fill="none" xmlns="http://www.w3.org/2000/svg">
<path d="M7 11.0933V17M10.877 17V12.6685C10.877 12.5988 10.877 12.5639 10.8781 12.5344C10.9089 11.7523 11.5359 11.1253 12.318 11.0945C12.3475 11.0934 12.3823 11.0934 12.4521 11.0934C12.5915 11.0934 12.6613 11.0934 12.7202 11.0957C14.2845 11.1572 15.5384 12.4112 15.6 13.9754C15.6023 14.0344 15.6023 14.1041 15.6023 14.2436V17M7 8.21704H7.00874M9.4 21H14.6C16.8402 21 17.9603 21 18.816 20.564C19.5686 20.1805 20.1805 19.5686 20.564 18.816C21 17.9603 21 16.8402 21 14.6V9.4C21 7.15979 21 6.03968 20.564 5.18404C20.1805 4.43139 19.5686 3.81947 18.816 3.43597C17.9603 3 16.8402 3 14.6 3H9.4C7.15979 3 6.03968 3 5.18404 3.43597C4.43139 3.81947 3.81947 4.43139 3.43597 5.18404C3 6.03968 3 7.15979 3 9.4V14.6C3 16.8402 3 17.9603 3.43597 18.816C3.81947 19.5686 4.43139 20.1805 5.18404 20.564C6.03968 21 7.15979 21 9.4 21Z" stroke="black" stroke-width="2" stroke-linecap="round" stroke-linejoin="round"/>
</svg>
