<svg width="24" height="24" viewBox="0 0 24 24" fill="none" xmlns="http://www.w3.org/2000/svg">
<path d="M19 13.8889V16.2C19 17.8801 19 18.7202 18.673 19.362C18.3854 19.9264 17.9265 20.3854 17.362 20.673C16.7202 21 15.8802 21 14.2 21H7.8C6.11984 21 5.27976 21 4.63803 20.673C4.07354 20.3854 3.6146 19.9264 3.32698 19.362C3 18.7202 3 17.8801 3 16.2V9.79999C3 8.11983 3 7.27975 3.32698 6.63801C3.6146 6.07353 4.07354 5.61459 4.63803 5.32697C5.27976 4.99999 6.11984 4.99999 7.8 4.99999H10.1111M21.0907 2.99707L15.7049 2.99707M21.0907 2.99707L21.0902 8.46513M21.0907 2.99707L7.8 16.2878" stroke="black" stroke-width="2" stroke-linecap="round" stroke-linejoin="round"/>
</svg>
