<svg width="524" height="386" viewBox="0 0 524 386" fill="none" xmlns="http://www.w3.org/2000/svg">
<path d="M447.245 144.465C456.124 144.465 463.316 151.615 463.316 160.428C463.316 169.241 456.124 176.392 447.245 176.392C438.366 176.392 431.174 169.241 431.174 160.428C431.174 151.615 438.366 144.465 447.245 144.465Z" fill="#9A80A7" stroke="#9A80A7"/>
<path d="M446.765 163.871C446.904 163.39 447.585 163.39 447.725 163.871L466.895 229.844C466.988 230.164 466.748 230.483 466.415 230.483H428.075C427.742 230.483 427.502 230.164 427.595 229.844L446.765 163.871Z" fill="#9A80A7" stroke="#9A80A7"/>
<rect x="441.827" y="77.4365" width="10.8367" height="70.7325" fill="#9A80A7" stroke="#9A80A7"/>
<path d="M262.592 0.5L24.6733 88.6957L262.592 173.363L498.143 88.6957L262.592 0.5Z" fill="#9A80A7" stroke="#9A80A7" stroke-linejoin="round"/>
<path d="M405.659 143.49C405.812 143.44 405.979 143.466 406.11 143.56C406.24 143.654 406.317 143.804 406.317 143.965V220.989C406.317 221.222 406.155 221.424 405.928 221.477C344 235.69 313.039 249.108 262.258 279.627C262.1 279.722 261.903 279.722 261.744 279.628C209.8 248.753 178.886 235.005 118.075 221.478C117.847 221.427 117.684 221.223 117.684 220.989V143.965C117.684 143.804 117.761 143.654 117.891 143.56C118.021 143.466 118.189 143.44 118.341 143.49L262 191.063L405.659 143.49Z" fill="#9A80A7" stroke="#9A80A7" stroke-linejoin="round"/>
<rect x="0.464263" y="0.532927" width="13.2036" height="93.0783" rx="0.5" transform="matrix(0.997668 0.0682467 -0.0691428 0.997607 61.2516 179.454)" fill="#9A80A7" stroke="#9A80A7"/>
<rect x="0.533414" y="0.46467" width="13.2036" height="32.2709" rx="0.5" transform="matrix(0.997667 -0.0682651 0.0691614 0.997606 453.132 241.397)" fill="#9A80A7" stroke="#9A80A7"/>
<rect x="255.398" y="257.943" width="13.2041" height="98.9551" rx="0.5" fill="#9A80A7" stroke="#9A80A7"/>
<path d="M255.99 343.877C255.99 344.074 255.874 344.252 255.694 344.333C255.514 344.413 255.304 344.381 255.157 344.25C228.961 320.899 205.032 305.967 176.292 295.535C147.539 285.098 113.948 279.157 68.411 273.816C68.2788 273.801 68.1582 273.734 68.076 273.629C67.9938 273.524 67.9569 273.39 67.9735 273.258L69.7489 259.146L69.7704 259.051C69.8418 258.836 70.0531 258.691 70.287 258.711C109.535 262.021 139.753 265.98 168.24 275.234C196.736 284.491 223.476 299.037 255.792 323.487C255.917 323.582 255.99 323.729 255.99 323.886V343.877Z" fill="#9A80A7" stroke="#9A80A7" stroke-linejoin="round"/>
<path d="M268.01 343.877C268.01 344.074 268.126 344.252 268.305 344.333C268.485 344.414 268.695 344.381 268.842 344.251C295.204 320.9 319.285 305.968 348.208 295.535C377.143 285.098 410.947 279.158 456.772 273.817C456.904 273.802 457.026 273.734 457.108 273.629C457.19 273.524 457.227 273.39 457.21 273.258L455.423 259.146L455.402 259.05C455.33 258.836 455.12 258.692 454.886 258.711C415.39 262.021 384.981 265.981 356.314 275.234C327.639 284.491 300.73 299.036 268.209 323.486C268.084 323.581 268.01 323.729 268.01 323.886V343.877Z" fill="#9A80A7" stroke="#9A80A7" stroke-linejoin="round"/>
<path d="M262.591 350.842C271.843 350.842 280.195 352.804 286.214 355.951C292.258 359.111 295.826 363.389 295.827 367.98C295.827 372.572 292.258 376.851 286.214 380.011C280.195 383.158 271.843 385.12 262.591 385.12C253.34 385.12 244.989 383.158 238.969 380.011C232.926 376.851 229.357 372.572 229.357 367.98C229.357 363.389 232.926 359.111 238.969 355.951C244.989 352.804 253.34 350.842 262.591 350.842Z" fill="#9A80A7" stroke="#9A80A7"/>
<path d="M50.7139 198.733C50.8598 198.733 50.9988 198.797 51.0938 198.908C51.1887 199.019 51.2305 199.166 51.208 199.311L35.9072 297.528C84.8327 298.876 121.35 302.586 155.026 310.627C188.835 318.699 219.761 331.132 257.488 349.895C257.648 349.974 257.754 350.134 257.765 350.312C257.775 350.491 257.689 350.662 257.539 350.76L229.723 368.987C229.591 369.073 229.427 369.092 229.279 369.039C157.239 342.975 104.702 336.944 0.982422 333.202C0.828591 333.197 0.685047 333.121 0.594727 332.996C0.504582 332.872 0.476965 332.712 0.519531 332.564L38.9893 199.095L39.0186 199.018C39.1005 198.846 39.2749 198.733 39.4697 198.733H50.7139Z" fill="#9A80A7" stroke="#9A80A7" stroke-linejoin="round"/>
<path d="M473.286 199.321C473.14 199.321 473.001 199.385 472.906 199.496C472.811 199.607 472.77 199.754 472.792 199.898L488.093 298.116C439.167 299.464 402.65 303.174 368.974 311.215C335.165 319.287 304.239 331.72 266.512 350.482C266.352 350.562 266.246 350.722 266.235 350.9C266.225 351.079 266.311 351.25 266.461 351.348L294.277 369.575C294.409 369.661 294.573 369.68 294.721 369.627C366.761 343.563 419.298 337.532 523.018 333.79C523.171 333.784 523.315 333.709 523.405 333.584C523.495 333.459 523.523 333.3 523.48 333.152L485.011 199.683L484.981 199.605C484.899 199.434 484.725 199.321 484.53 199.321H473.286Z" fill="#9A80A7" stroke="#9A80A7" stroke-linejoin="round"/>
</svg>
