<svg width="162" height="232" viewBox="0 0 162 232" fill="none" xmlns="http://www.w3.org/2000/svg">
<path d="M10.2 189.3V130.18H22.84V189.3H10.2ZM2.6 190.5V188.1H30.68V190.5H2.6ZM2.6 132.58V130.18H30.68V132.58H2.6ZM43.2994 190.5V188.1H77.1394C80.126 188.1 82.6594 187.3 84.7394 185.7C86.8194 184.1 88.4194 181.993 89.5394 179.38C90.7127 176.767 91.326 173.94 91.3794 170.9H94.5794V190.5H43.2994ZM50.8994 189.3V130.18H63.5394V189.3H50.8994ZM43.2994 132.58V130.18H72.9794V132.58H43.2994ZM142.229 189.3L127.589 149.22H127.269L126.789 146.26L132.229 129.46H134.309L156.069 189.3H142.229ZM101.589 190.5V188.1H121.109V190.5H101.589ZM115.909 174.18V171.86H143.429V174.18H115.909ZM133.429 190.5V188.1H161.189V190.5H133.429ZM108.629 189.3L132.229 129.46H134.309L130.149 142.18L111.269 189.3H108.629Z" fill="#9A80A7"/>
<path d="M13.124 222.851C11.702 222.851 10.397 222.572 9.209 222.014C8.021 221.456 6.986 220.7 6.104 219.746C5.24 218.774 4.565 217.667 4.079 216.425C3.593 215.165 3.35 213.842 3.35 212.456C3.35 211.07 3.584 209.747 4.052 208.487C4.538 207.227 5.222 206.102 6.104 205.112C6.986 204.122 8.03 203.339 9.236 202.763C10.442 202.187 11.774 201.899 13.232 201.899C14.168 201.899 14.969 202.034 15.635 202.304C16.319 202.556 17.021 202.952 17.741 203.492L18.929 202.142H19.604V208.379H18.794C18.596 207.335 18.263 206.399 17.795 205.571C17.345 204.725 16.733 204.059 15.959 203.573C15.203 203.087 14.258 202.844 13.124 202.844C12.458 202.844 11.837 202.97 11.261 203.222C10.703 203.474 10.217 203.951 9.803 204.653C9.389 205.337 9.065 206.336 8.831 207.65C8.597 208.946 8.48 210.647 8.48 212.753C8.48 214.607 8.57 216.137 8.75 217.343C8.948 218.531 9.245 219.458 9.641 220.124C10.037 220.79 10.523 221.258 11.099 221.528C11.693 221.78 12.377 221.906 13.151 221.906C14.375 221.906 15.392 221.663 16.202 221.177C17.03 220.691 17.678 220.052 18.146 219.26C18.632 218.45 18.974 217.577 19.172 216.641H19.982V222.5H19.172L17.984 221.258C17.21 221.816 16.418 222.221 15.608 222.473C14.816 222.725 13.988 222.851 13.124 222.851ZM30.4023 222.851C29.4663 222.851 28.5933 222.698 27.7833 222.392C26.9733 222.086 26.2623 221.645 25.6503 221.069C25.0383 220.493 24.5523 219.818 24.1923 219.044C23.8503 218.252 23.6793 217.379 23.6793 216.425C23.6793 215.489 23.8503 214.634 24.1923 213.86C24.5523 213.068 25.0383 212.393 25.6503 211.835C26.2623 211.259 26.9733 210.818 27.7833 210.512C28.5933 210.188 29.4663 210.026 30.4023 210.026C31.3383 210.026 32.2113 210.188 33.0213 210.512C33.8313 210.818 34.5423 211.259 35.1543 211.835C35.7843 212.393 36.2703 213.068 36.6123 213.86C36.9723 214.634 37.1523 215.489 37.1523 216.425C37.1523 217.379 36.9723 218.252 36.6123 219.044C36.2703 219.818 35.7843 220.493 35.1543 221.069C34.5423 221.645 33.8313 222.086 33.0213 222.392C32.2113 222.698 31.3383 222.851 30.4023 222.851ZM30.4023 221.906C31.0323 221.906 31.5363 221.762 31.9143 221.474C32.2923 221.186 32.5623 220.655 32.7243 219.881C32.8863 219.089 32.9673 217.946 32.9673 216.452C32.9673 214.958 32.8863 213.815 32.7243 213.023C32.5623 212.231 32.2923 211.691 31.9143 211.403C31.5363 211.115 31.0323 210.971 30.4023 210.971C29.7723 210.971 29.2683 211.115 28.8903 211.403C28.5303 211.691 28.2693 212.231 28.1073 213.023C27.9453 213.815 27.8643 214.958 27.8643 216.452C27.8643 217.946 27.9453 219.089 28.1073 219.881C28.2693 220.655 28.5303 221.186 28.8903 221.474C29.2683 221.762 29.7723 221.906 30.4023 221.906ZM58.3707 222.095V212.564C58.3707 211.664 57.9657 211.214 57.1557 211.214C56.5977 211.214 56.0847 211.457 55.6167 211.943C55.1487 212.429 54.7707 213.095 54.4827 213.941C54.2127 214.769 54.0777 215.714 54.0777 216.776L53.5377 212.591H54.1857C54.5277 211.799 55.0227 211.178 55.6707 210.728C56.3367 210.26 57.1737 210.026 58.1817 210.026C59.3517 210.026 60.2967 210.314 61.0167 210.89C61.7367 211.448 62.0967 212.141 62.0967 212.969V222.095H58.3707ZM40.1727 222.5V221.69H47.8407V222.5H40.1727ZM42.3597 222.095V210.782H46.0857V222.095H42.3597ZM48.5427 222.5V221.69H55.8057V222.5H48.5427ZM40.1727 211.16V210.35H46.0857V211.16H40.1727ZM50.3787 222.095V212.564C50.3787 211.664 49.9737 211.214 49.1637 211.214C48.6057 211.214 48.0927 211.457 47.6247 211.943C47.1567 212.429 46.7787 213.095 46.4907 213.941C46.2207 214.769 46.0857 215.714 46.0857 216.776L45.5457 212.591H46.1937C46.5357 211.799 47.0307 211.178 47.6787 210.728C48.3447 210.26 49.1817 210.026 50.1897 210.026C51.3597 210.026 52.3047 210.314 53.0247 210.89C53.7447 211.448 54.1047 212.141 54.1047 212.969V222.095H50.3787ZM56.5347 222.5V221.69H63.7977V222.5H56.5347ZM75.3115 222.824C74.4835 222.824 73.7545 222.644 73.1245 222.284C72.4945 221.924 72.0265 221.474 71.7205 220.934H71.0725L71.6125 216.83C71.6125 218.54 71.9095 219.791 72.5035 220.583C73.1155 221.375 73.8625 221.771 74.7445 221.771C75.2305 221.771 75.6175 221.627 75.9055 221.339C76.2115 221.051 76.4275 220.529 76.5535 219.773C76.6975 218.999 76.7695 217.901 76.7695 216.479C76.7695 215.021 76.6975 213.905 76.5535 213.131C76.4275 212.339 76.2115 211.799 75.9055 211.511C75.5995 211.223 75.2035 211.079 74.7175 211.079C73.8355 211.079 73.0975 211.475 72.5035 212.267C71.9095 213.059 71.6125 214.31 71.6125 216.02L71.0725 211.916H71.7205C72.0265 211.376 72.4945 210.926 73.1245 210.566C73.7725 210.206 74.5105 210.026 75.3385 210.026C76.3285 210.026 77.2465 210.296 78.0925 210.836C78.9565 211.358 79.6495 212.105 80.1715 213.077C80.6935 214.031 80.9545 215.147 80.9545 216.425C80.9545 217.703 80.6845 218.828 80.1445 219.8C79.6225 220.754 78.9295 221.501 78.0655 222.041C77.2195 222.563 76.3015 222.824 75.3115 222.824ZM65.8885 230.978V230.168H74.3125V230.978H65.8885ZM67.8865 230.573V210.782H71.6125V230.573H67.8865ZM65.6995 211.16V210.35H71.6125V211.16H65.6995ZM88.3462 222.824C87.2842 222.824 86.4112 222.545 85.7272 221.987C85.0432 221.429 84.7012 220.691 84.7012 219.773C84.7012 218.909 85.0072 218.162 85.6192 217.532C86.2492 216.902 87.1312 216.425 88.2652 216.101C89.3992 215.759 90.7222 215.588 92.2342 215.588V212.429C92.2342 211.961 92.0632 211.592 91.7212 211.322C91.3792 211.052 90.9292 210.917 90.3712 210.917C89.9032 210.917 89.4982 211.007 89.1562 211.187C88.8322 211.367 88.6702 211.601 88.6702 211.889C88.6702 212.123 88.7602 212.33 88.9402 212.51C89.1382 212.672 89.2372 212.942 89.2372 213.32C89.2372 213.788 89.0482 214.202 88.6702 214.562C88.3102 214.922 87.8692 215.102 87.3472 215.102C86.8252 215.102 86.3932 214.922 86.0512 214.562C85.7092 214.202 85.5382 213.761 85.5382 213.239C85.5382 212.627 85.7722 212.078 86.2402 211.592C86.7082 211.106 87.3562 210.728 88.1842 210.458C89.0122 210.17 89.9482 210.026 90.9922 210.026C92.4322 210.026 93.6202 210.287 94.5562 210.809C95.4922 211.313 95.9602 211.979 95.9602 212.807V220.664C95.9602 220.826 96.0142 220.97 96.1222 221.096C96.2482 221.222 96.4012 221.285 96.5812 221.285C96.7252 221.285 96.8782 221.222 97.0402 221.096C97.2202 220.97 97.4632 220.736 97.7692 220.394L98.3092 221.015C97.3192 222.221 96.1942 222.824 94.9342 222.824C94.1962 222.824 93.6112 222.653 93.1792 222.311C92.7652 221.969 92.4862 221.519 92.3422 220.961H92.2342C91.9102 221.429 91.4062 221.861 90.7222 222.257C90.0562 222.635 89.2642 222.824 88.3462 222.824ZM90.1552 221.339C90.7312 221.339 91.2172 221.087 91.6132 220.583C92.0272 220.061 92.2342 219.386 92.2342 218.558V216.425C91.0822 216.425 90.1912 216.668 89.5612 217.154C88.9312 217.64 88.6162 218.36 88.6162 219.314C88.6162 219.926 88.7422 220.421 88.9942 220.799C89.2642 221.159 89.6512 221.339 90.1552 221.339ZM110.325 222.095V212.564C110.325 211.664 109.92 211.214 109.11 211.214C108.516 211.214 107.976 211.457 107.49 211.943C107.004 212.429 106.617 213.095 106.329 213.941C106.041 214.769 105.897 215.714 105.897 216.776L105.357 212.591H106.005C106.365 211.799 106.878 211.178 107.544 210.728C108.228 210.26 109.092 210.026 110.136 210.026C111.306 210.026 112.251 210.314 112.971 210.89C113.691 211.448 114.051 212.141 114.051 212.969V222.095H110.325ZM99.9836 222.5V221.69H107.652V222.5H99.9836ZM102.171 222.095V210.782H105.897V222.095H102.171ZM108.489 222.5V221.69H115.752V222.5H108.489ZM99.9836 211.16V210.35H105.897V211.16H99.9836ZM120.025 222.095V210.782H123.751V222.095H120.025ZM117.838 222.5V221.69H125.506V222.5H117.838ZM117.838 211.16V210.35H123.751V211.16H117.838ZM121.672 207.218C121.096 207.218 120.592 207.002 120.16 206.57C119.728 206.138 119.512 205.634 119.512 205.058C119.512 204.464 119.728 203.951 120.16 203.519C120.592 203.087 121.096 202.871 121.672 202.871C122.266 202.871 122.779 203.087 123.211 203.519C123.643 203.951 123.859 204.464 123.859 205.058C123.859 205.634 123.643 206.138 123.211 206.57C122.779 207.002 122.266 207.218 121.672 207.218ZM135.127 222.851C134.191 222.851 133.318 222.698 132.508 222.392C131.698 222.086 130.987 221.645 130.375 221.069C129.763 220.493 129.277 219.818 128.917 219.044C128.575 218.252 128.404 217.379 128.404 216.425C128.404 215.489 128.575 214.634 128.917 213.86C129.277 213.068 129.763 212.393 130.375 211.835C130.987 211.259 131.698 210.818 132.508 210.512C133.318 210.188 134.191 210.026 135.127 210.026C136.063 210.026 136.936 210.188 137.746 210.512C138.556 210.818 139.267 211.259 139.879 211.835C140.509 212.393 140.995 213.068 141.337 213.86C141.697 214.634 141.877 215.489 141.877 216.425C141.877 217.379 141.697 218.252 141.337 219.044C140.995 219.818 140.509 220.493 139.879 221.069C139.267 221.645 138.556 222.086 137.746 222.392C136.936 222.698 136.063 222.851 135.127 222.851ZM135.127 221.906C135.757 221.906 136.261 221.762 136.639 221.474C137.017 221.186 137.287 220.655 137.449 219.881C137.611 219.089 137.692 217.946 137.692 216.452C137.692 214.958 137.611 213.815 137.449 213.023C137.287 212.231 137.017 211.691 136.639 211.403C136.261 211.115 135.757 210.971 135.127 210.971C134.497 210.971 133.993 211.115 133.615 211.403C133.255 211.691 132.994 212.231 132.832 213.023C132.67 213.815 132.589 214.958 132.589 216.452C132.589 217.946 132.67 219.089 132.832 219.881C132.994 220.655 133.255 221.186 133.615 221.474C133.993 221.762 134.497 221.906 135.127 221.906ZM155.238 222.095V212.564C155.238 211.664 154.833 211.214 154.023 211.214C153.429 211.214 152.889 211.457 152.403 211.943C151.917 212.429 151.53 213.095 151.242 213.941C150.954 214.769 150.81 215.714 150.81 216.776L150.27 212.591H150.918C151.278 211.799 151.791 211.178 152.457 210.728C153.141 210.26 154.005 210.026 155.049 210.026C156.219 210.026 157.164 210.314 157.884 210.89C158.604 211.448 158.964 212.141 158.964 212.969V222.095H155.238ZM144.897 222.5V221.69H152.565V222.5H144.897ZM147.084 222.095V210.782H150.81V222.095H147.084ZM153.402 222.5V221.69H160.665V222.5H153.402ZM144.897 211.16V210.35H150.81V211.16H144.897Z" fill="#9A80A7"/>
<path d="M137.337 44.832C139.86 44.832 141.901 46.8636 141.901 49.3623C141.9 51.8608 139.86 53.8916 137.337 53.8916C134.814 53.8914 132.775 51.8607 132.775 49.3623C132.775 46.8638 134.814 44.8323 137.337 44.832Z" fill="#9A80A7" stroke="#9A80A7"/>
<path d="M136.858 52.8057C136.997 52.3251 137.678 52.325 137.818 52.8057L142.749 69.7783C142.842 70.0981 142.603 70.4177 142.27 70.418H132.405C132.072 70.4179 131.832 70.0981 131.925 69.7783L136.858 52.8057Z" fill="#9A80A7" stroke="#9A80A7"/>
<rect x="136.029" y="24.3525" width="2.61638" height="20.9158" fill="#9A80A7" stroke="#9A80A7"/>
<path d="M80.9219 0.5L8.23273 27.4457L80.9219 53.3135L152.888 27.4457L80.9219 0.5Z" fill="#9A80A7" stroke="#9A80A7" stroke-linejoin="round"/>
<path d="M124.523 43.8574C124.675 43.807 124.843 43.8328 124.973 43.9268C125.103 44.0208 125.18 44.1715 125.18 44.332V67.8643C125.18 68.0971 125.019 68.2993 124.792 68.3516C105.91 72.6854 96.4842 76.7703 80.9984 86.0771C80.8407 86.1719 80.6439 86.1721 80.4857 86.0781C64.6419 76.6607 55.2308 72.4762 36.6937 68.3525C36.465 68.3017 36.3021 68.0986 36.3021 67.8643V44.332L36.3158 44.2139C36.3436 44.0995 36.4117 43.9972 36.5092 43.9268C36.6393 43.8328 36.8069 43.807 36.9594 43.8574L80.7406 58.3555L124.523 43.8574Z" fill="#9A80A7" stroke="#9A80A7" stroke-linejoin="round"/>
<rect x="0.464263" y="0.532927" width="3.33952" height="27.7429" rx="0.5" transform="matrix(0.997668 0.0682467 -0.0691428 0.997607 19.4345 55.1532)" fill="#9A80A7" stroke="#9A80A7"/>
<rect x="0.533414" y="0.46467" width="3.33952" height="9.16497" rx="0.5" transform="matrix(0.997667 -0.0682651 0.0691614 0.997606 139.115 74.1254)" fill="#9A80A7" stroke="#9A80A7"/>
<rect x="79.0713" y="79.502" width="3.33965" height="29.5384" rx="0.5" fill="#9A80A7" stroke="#9A80A7"/>
<path d="M79.2521 105.409C79.2519 105.606 79.1366 105.785 78.9572 105.865C78.7774 105.946 78.5661 105.913 78.4191 105.782C70.4426 98.6721 63.1691 94.1355 54.4366 90.9658C45.6915 87.7916 35.4619 85.9796 21.5548 84.3486C21.4225 84.333 21.302 84.265 21.2198 84.1602C21.1378 84.0553 21.1007 83.9222 21.1173 83.79L21.6593 79.4785L21.6818 79.3828C21.7532 79.168 21.9645 79.0232 22.1984 79.043C34.1937 80.0546 43.4596 81.2661 52.2032 84.1064C60.955 86.9495 69.1584 91.4154 79.0538 98.9023C79.1786 98.9968 79.252 99.1443 79.2521 99.3008V105.409Z" fill="#9A80A7" stroke="#9A80A7" stroke-linejoin="round"/>
<path d="M82.2305 105.409C82.2307 105.606 82.3453 105.784 82.5245 105.865C82.7038 105.946 82.9143 105.914 83.0616 105.783C91.0887 98.6729 98.4088 94.1358 107.197 90.9658C115.998 87.7913 126.293 85.9796 140.288 84.3486C140.421 84.3332 140.542 84.2652 140.624 84.1602C140.706 84.0551 140.743 83.9214 140.727 83.7891L140.181 79.4785C140.147 79.2127 139.91 79.0206 139.643 79.043C127.571 80.0546 118.248 81.2663 109.449 84.1064C100.643 86.9492 92.3877 91.4145 82.4297 98.9014C82.3042 98.9957 82.2307 99.1438 82.2305 99.3008V105.409Z" fill="#9A80A7" stroke="#9A80A7" stroke-linejoin="round"/>
<path d="M80.9218 107.885C83.7039 107.885 86.1983 108.475 87.9785 109.406C89.7821 110.349 90.7282 111.565 90.7285 112.773C90.7285 113.982 89.7824 115.198 87.9785 116.142C86.1983 117.072 83.7039 117.663 80.9218 117.663C78.1397 117.663 75.6453 117.072 73.8652 116.142C72.0613 115.198 71.1152 113.982 71.1152 112.773C71.1154 111.565 72.0615 110.349 73.8652 109.406C75.6453 108.475 78.1397 107.885 80.9218 107.885Z" fill="#9A80A7" stroke="#9A80A7"/>
<path d="M16.1885 60.7178C16.3345 60.7178 16.4734 60.7817 16.5684 60.8926C16.6634 61.0035 16.7051 61.1506 16.6826 61.2949L12.0684 90.9141C26.8306 91.3352 37.908 92.4704 48.1387 94.9131C58.5026 97.3876 67.9774 101.197 79.5176 106.937C79.6779 107.016 79.7833 107.177 79.7939 107.355C79.8044 107.534 79.7181 107.705 79.5684 107.803L71.0703 113.372C70.9387 113.458 70.7739 113.477 70.626 113.424C48.6666 105.479 32.658 103.638 0.982422 102.495C0.828591 102.49 0.685047 102.414 0.594727 102.289C0.504531 102.165 0.477047 102.005 0.519531 101.857L12.2725 61.0791L12.3018 61.002C12.3836 60.8305 12.5582 60.7179 12.7529 60.7178H16.1885Z" fill="#9A80A7" stroke="#9A80A7" stroke-linejoin="round"/>
<path d="M145.294 60.8965C145.148 60.8965 145.009 60.9604 144.914 61.0713C144.819 61.1822 144.777 61.3293 144.8 61.4736L149.414 91.0928C134.652 91.5139 123.574 92.6491 113.344 95.0918C102.98 97.5663 93.5048 101.376 81.9646 107.115C81.8043 107.195 81.6988 107.355 81.6882 107.534C81.6778 107.713 81.7641 107.883 81.9138 107.981L90.4119 113.551C90.5435 113.637 90.7083 113.656 90.8562 113.603C112.816 105.658 128.824 103.817 160.5 102.674C160.654 102.668 160.797 102.592 160.887 102.468C160.978 102.343 161.005 102.184 160.963 102.036L149.21 61.2578L149.18 61.1807C149.099 61.0092 148.924 60.8966 148.729 60.8965H145.294Z" fill="#9A80A7" stroke="#9A80A7" stroke-linejoin="round"/>
</svg>
