<svg width="24" height="24" viewBox="0 0 24 24" fill="none" xmlns="http://www.w3.org/2000/svg">
<path d="M13.0198 8V7.8C13.0198 6.11984 13.0198 5.27976 12.6928 4.63803C12.4052 4.07354 11.9462 3.6146 11.3817 3.32698C10.74 3 9.89993 3 8.21978 3H7.81978C6.13962 3 5.29954 3 4.6578 3.32698C4.09332 3.6146 3.63438 4.07354 3.34676 4.63803C3.01978 5.27976 3.01978 6.11984 3.01978 7.8V16.2C3.01978 17.8802 3.01978 18.7202 3.34676 19.362C3.63438 19.9265 4.09332 20.3854 4.6578 20.673C5.29954 21 6.13962 21 7.81978 21H8.21978C9.89993 21 10.74 21 11.3817 20.673C11.9462 20.3854 12.4052 19.9265 12.6928 19.362C13.0198 18.7202 13.0198 17.8802 13.0198 16.2V16M20.9998 12L16.7306 16.2691M20.9998 12L16.7306 7.7309M20.9998 12H10.3789" stroke="black" stroke-width="2" stroke-linecap="round" stroke-linejoin="round"/>
</svg>
