<svg width="1257" height="389" viewBox="0 0 1257 389" fill="none" xmlns="http://www.w3.org/2000/svg">
<path d="M616.5 224.4V2.70039H663.9V224.4H616.5ZM588 228.9V219.9H693.3V228.9H588ZM588 11.7004V2.70039H693.3V11.7004H588ZM775.723 228.9V219.9H902.623C913.823 219.9 923.323 216.9 931.123 210.9C938.923 204.9 944.923 197 949.123 187.2C953.523 177.4 955.823 166.8 956.023 155.4H968.023V228.9H775.723ZM804.223 224.4V2.70039H851.623V224.4H804.223ZM775.723 11.7004V2.70039H887.023V11.7004H775.723ZM1181.81 224.4L1126.91 74.1004H1125.71L1123.91 63.0004L1144.31 0.000387192H1152.11L1233.71 224.4H1181.81ZM1029.41 228.9V219.9H1102.61V228.9H1029.41ZM1083.11 167.7V159H1186.31V167.7H1083.11ZM1148.81 228.9V219.9H1252.91V228.9H1148.81ZM1055.81 224.4L1144.31 0.000387192H1152.11L1136.51 47.7004L1065.71 224.4H1055.81Z" fill="#9A80A7"/>
<path d="M630.204 352.421C624.042 352.421 618.387 351.212 613.239 348.794C608.091 346.376 603.606 343.1 599.784 338.966C596.04 334.754 593.115 329.957 591.009 324.575C588.903 319.115 587.85 313.382 587.85 307.376C587.85 301.37 588.864 295.637 590.892 290.177C592.998 284.717 595.962 279.842 599.784 275.552C603.606 271.262 608.13 267.869 613.356 265.373C618.582 262.877 624.354 261.629 630.672 261.629C634.728 261.629 638.199 262.214 641.085 263.384C644.049 264.476 647.091 266.192 650.211 268.532L655.359 262.682H658.284V289.709H654.774C653.916 285.185 652.473 281.129 650.445 277.541C648.495 273.875 645.843 270.989 642.489 268.883C639.213 266.777 635.118 265.724 630.204 265.724C627.318 265.724 624.627 266.27 622.131 267.362C619.713 268.454 617.607 270.521 615.813 273.563C614.019 276.527 612.615 280.856 611.601 286.55C610.587 292.166 610.08 299.537 610.08 308.663C610.08 316.697 610.47 323.327 611.25 328.553C612.108 333.701 613.395 337.718 615.111 340.604C616.827 343.49 618.933 345.518 621.429 346.688C624.003 347.78 626.967 348.326 630.321 348.326C635.625 348.326 640.032 347.273 643.542 345.167C647.13 343.061 649.938 340.292 651.966 336.86C654.072 333.35 655.554 329.567 656.412 325.511H659.922V350.9H656.412L651.264 345.518C647.91 347.936 644.478 349.691 640.968 350.783C637.536 351.875 633.948 352.421 630.204 352.421ZM703.088 352.421C699.032 352.421 695.249 351.758 691.739 350.432C688.229 349.106 685.148 347.195 682.496 344.699C679.844 342.203 677.738 339.278 676.178 335.924C674.696 332.492 673.955 328.709 673.955 324.575C673.955 320.519 674.696 316.814 676.178 313.46C677.738 310.028 679.844 307.103 682.496 304.685C685.148 302.189 688.229 300.278 691.739 298.952C695.249 297.548 699.032 296.846 703.088 296.846C707.144 296.846 710.927 297.548 714.437 298.952C717.947 300.278 721.028 302.189 723.68 304.685C726.41 307.103 728.516 310.028 729.998 313.46C731.558 316.814 732.338 320.519 732.338 324.575C732.338 328.709 731.558 332.492 729.998 335.924C728.516 339.278 726.41 342.203 723.68 344.699C721.028 347.195 717.947 349.106 714.437 350.432C710.927 351.758 707.144 352.421 703.088 352.421ZM703.088 348.326C705.818 348.326 708.002 347.702 709.64 346.454C711.278 345.206 712.448 342.905 713.15 339.551C713.852 336.119 714.203 331.166 714.203 324.692C714.203 318.218 713.852 313.265 713.15 309.833C712.448 306.401 711.278 304.061 709.64 302.813C708.002 301.565 705.818 300.941 703.088 300.941C700.358 300.941 698.174 301.565 696.536 302.813C694.976 304.061 693.845 306.401 693.143 309.833C692.441 313.265 692.09 318.218 692.09 324.692C692.09 331.166 692.441 336.119 693.143 339.551C693.845 342.905 694.976 345.206 696.536 346.454C698.174 347.702 700.358 348.326 703.088 348.326ZM822.295 349.145V307.844C822.295 303.944 820.54 301.994 817.03 301.994C814.612 301.994 812.389 303.047 810.361 305.153C808.333 307.259 806.695 310.145 805.447 313.811C804.277 317.399 803.692 321.494 803.692 326.096L801.352 307.961H804.16C805.642 304.529 807.787 301.838 810.595 299.888C813.481 297.86 817.108 296.846 821.476 296.846C826.546 296.846 830.641 298.094 833.761 300.59C836.881 303.008 838.441 306.011 838.441 309.599V349.145H822.295ZM743.437 350.9V347.39H776.665V350.9H743.437ZM752.914 349.145V300.122H769.06V349.145H752.914ZM779.707 350.9V347.39H811.18V350.9H779.707ZM743.437 301.76V298.25H769.06V301.76H743.437ZM787.663 349.145V307.844C787.663 303.944 785.908 301.994 782.398 301.994C779.98 301.994 777.757 303.047 775.729 305.153C773.701 307.259 772.063 310.145 770.815 313.811C769.645 317.399 769.06 321.494 769.06 326.096L766.72 307.961H769.528C771.01 304.529 773.155 301.838 775.963 299.888C778.849 297.86 782.476 296.846 786.844 296.846C791.914 296.846 796.009 298.094 799.129 300.59C802.249 303.008 803.809 306.011 803.809 309.599V349.145H787.663ZM814.339 350.9V347.39H845.812V350.9H814.339ZM893.716 352.304C890.128 352.304 886.969 351.524 884.239 349.964C881.509 348.404 879.481 346.454 878.155 344.114H875.347L877.687 326.33C877.687 333.74 878.974 339.161 881.548 342.593C884.2 346.025 887.437 347.741 891.259 347.741C893.365 347.741 895.042 347.117 896.29 345.869C897.616 344.621 898.552 342.359 899.098 339.083C899.722 335.729 900.034 330.971 900.034 324.809C900.034 318.491 899.722 313.655 899.098 310.301C898.552 306.869 897.616 304.529 896.29 303.281C894.964 302.033 893.248 301.409 891.142 301.409C887.32 301.409 884.122 303.125 881.548 306.557C878.974 309.989 877.687 315.41 877.687 322.82L875.347 305.036H878.155C879.481 302.696 881.509 300.746 884.239 299.186C887.047 297.626 890.245 296.846 893.833 296.846C898.123 296.846 902.101 298.016 905.767 300.356C909.511 302.618 912.514 305.855 914.776 310.067C917.038 314.201 918.169 319.037 918.169 324.575C918.169 330.113 916.999 334.988 914.659 339.2C912.397 343.334 909.394 346.571 905.65 348.911C901.984 351.173 898.006 352.304 893.716 352.304ZM852.883 387.638V384.128H889.387V387.638H852.883ZM861.541 385.883V300.122H877.687V385.883H861.541ZM852.064 301.76V298.25H877.687V301.76H852.064ZM948.211 352.304C943.609 352.304 939.826 351.095 936.862 348.677C933.898 346.259 932.416 343.061 932.416 339.083C932.416 335.339 933.742 332.102 936.394 329.372C939.124 326.642 942.946 324.575 947.86 323.171C952.774 321.689 958.507 320.948 965.059 320.948V307.259C965.059 305.231 964.318 303.632 962.836 302.462C961.354 301.292 959.404 300.707 956.986 300.707C954.958 300.707 953.203 301.097 951.721 301.877C950.317 302.657 949.615 303.671 949.615 304.919C949.615 305.933 950.005 306.83 950.785 307.61C951.643 308.312 952.072 309.482 952.072 311.12C952.072 313.148 951.253 314.942 949.615 316.502C948.055 318.062 946.144 318.842 943.882 318.842C941.62 318.842 939.748 318.062 938.266 316.502C936.784 314.942 936.043 313.031 936.043 310.769C936.043 308.117 937.057 305.738 939.085 303.632C941.113 301.526 943.921 299.888 947.509 298.718C951.097 297.47 955.153 296.846 959.677 296.846C965.917 296.846 971.065 297.977 975.121 300.239C979.177 302.423 981.205 305.309 981.205 308.897V342.944C981.205 343.646 981.439 344.27 981.907 344.816C982.453 345.362 983.116 345.635 983.896 345.635C984.52 345.635 985.183 345.362 985.885 344.816C986.665 344.27 987.718 343.256 989.044 341.774L991.384 344.465C987.094 349.691 982.219 352.304 976.759 352.304C973.561 352.304 971.026 351.563 969.154 350.081C967.36 348.599 966.151 346.649 965.527 344.231H965.059C963.655 346.259 961.471 348.131 958.507 349.847C955.621 351.485 952.189 352.304 948.211 352.304ZM956.05 345.869C958.546 345.869 960.652 344.777 962.368 342.593C964.162 340.331 965.059 337.406 965.059 333.818V324.575C960.067 324.575 956.206 325.628 953.476 327.734C950.746 329.84 949.381 332.96 949.381 337.094C949.381 339.746 949.927 341.891 951.019 343.529C952.189 345.089 953.866 345.869 956.05 345.869ZM1041.46 349.145V307.844C1041.46 303.944 1039.71 301.994 1036.2 301.994C1033.62 301.994 1031.28 303.047 1029.18 305.153C1027.07 307.259 1025.39 310.145 1024.15 313.811C1022.9 317.399 1022.27 321.494 1022.27 326.096L1019.93 307.961H1022.74C1024.3 304.529 1026.52 301.838 1029.41 299.888C1032.37 297.86 1036.12 296.846 1040.64 296.846C1045.71 296.846 1049.81 298.094 1052.93 300.59C1056.05 303.008 1057.61 306.011 1057.61 309.599V349.145H1041.46ZM996.651 350.9V347.39H1029.88V350.9H996.651ZM1006.13 349.145V300.122H1022.27V349.145H1006.13ZM1033.51 350.9V347.39H1064.98V350.9H1033.51ZM996.651 301.76V298.25H1022.27V301.76H996.651ZM1081.51 349.145V300.122H1097.65V349.145H1081.51ZM1072.03 350.9V347.39H1105.26V350.9H1072.03ZM1072.03 301.76V298.25H1097.65V301.76H1072.03ZM1088.64 284.678C1086.15 284.678 1083.96 283.742 1082.09 281.87C1080.22 279.998 1079.28 277.814 1079.28 275.318C1079.28 272.744 1080.22 270.521 1082.09 268.649C1083.96 266.777 1086.15 265.841 1088.64 265.841C1091.22 265.841 1093.44 266.777 1095.31 268.649C1097.18 270.521 1098.12 272.744 1098.12 275.318C1098.12 277.814 1097.18 279.998 1095.31 281.87C1093.44 283.742 1091.22 284.678 1088.64 284.678ZM1144.96 352.421C1140.9 352.421 1137.12 351.758 1133.61 350.432C1130.1 349.106 1127.02 347.195 1124.37 344.699C1121.72 342.203 1119.61 339.278 1118.05 335.924C1116.57 332.492 1115.83 328.709 1115.83 324.575C1115.83 320.519 1116.57 316.814 1118.05 313.46C1119.61 310.028 1121.72 307.103 1124.37 304.685C1127.02 302.189 1130.1 300.278 1133.61 298.952C1137.12 297.548 1140.9 296.846 1144.96 296.846C1149.02 296.846 1152.8 297.548 1156.31 298.952C1159.82 300.278 1162.9 302.189 1165.55 304.685C1168.28 307.103 1170.39 310.028 1171.87 313.46C1173.43 316.814 1174.21 320.519 1174.21 324.575C1174.21 328.709 1173.43 332.492 1171.87 335.924C1170.39 339.278 1168.28 342.203 1165.55 344.699C1162.9 347.195 1159.82 349.106 1156.31 350.432C1152.8 351.758 1149.02 352.421 1144.96 352.421ZM1144.96 348.326C1147.69 348.326 1149.87 347.702 1151.51 346.454C1153.15 345.206 1154.32 342.905 1155.02 339.551C1155.72 336.119 1156.07 331.166 1156.07 324.692C1156.07 318.218 1155.72 313.265 1155.02 309.833C1154.32 306.401 1153.15 304.061 1151.51 302.813C1149.87 301.565 1147.69 300.941 1144.96 300.941C1142.23 300.941 1140.05 301.565 1138.41 302.813C1136.85 304.061 1135.72 306.401 1135.01 309.833C1134.31 313.265 1133.96 318.218 1133.96 324.692C1133.96 331.166 1134.31 336.119 1135.01 339.551C1135.72 342.905 1136.85 345.206 1138.41 346.454C1140.05 347.702 1142.23 348.326 1144.96 348.326ZM1230.12 349.145V307.844C1230.12 303.944 1228.36 301.994 1224.85 301.994C1222.28 301.994 1219.94 303.047 1217.83 305.153C1215.73 307.259 1214.05 310.145 1212.8 313.811C1211.56 317.399 1210.93 321.494 1210.93 326.096L1208.59 307.961H1211.4C1212.96 304.529 1215.18 301.838 1218.07 299.888C1221.03 297.86 1224.78 296.846 1229.3 296.846C1234.37 296.846 1238.47 298.094 1241.59 300.59C1244.71 303.008 1246.27 306.011 1246.27 309.599V349.145H1230.12ZM1185.31 350.9V347.39H1218.54V350.9H1185.31ZM1194.79 349.145V300.122H1210.93V349.145H1194.79ZM1222.16 350.9V347.39H1253.64V350.9H1222.16ZM1185.31 301.76V298.25H1210.93V301.76H1185.31Z" fill="#9A80A7"/>
<path d="M447.245 146.865C456.124 146.865 463.316 154.015 463.316 162.828C463.316 171.641 456.124 178.792 447.245 178.792C438.366 178.792 431.174 171.641 431.174 162.828C431.174 154.015 438.366 146.865 447.245 146.865Z" fill="#9A80A7" stroke="#9A80A7"/>
<path d="M446.765 166.271C446.904 165.79 447.585 165.79 447.725 166.271L466.895 232.243C466.988 232.563 466.748 232.883 466.415 232.883H428.075C427.742 232.883 427.502 232.563 427.595 232.243L446.765 166.271Z" fill="#9A80A7" stroke="#9A80A7"/>
<rect x="441.827" y="79.8359" width="10.8367" height="70.7325" fill="#9A80A7" stroke="#9A80A7"/>
<path d="M262.592 2.90039L24.6733 91.0961L262.592 175.764L498.143 91.0961L262.592 2.90039Z" fill="#9A80A7" stroke="#9A80A7" stroke-linejoin="round"/>
<path d="M405.659 145.891C405.812 145.84 405.979 145.866 406.11 145.96C406.24 146.054 406.317 146.205 406.317 146.365V223.39C406.317 223.623 406.155 223.825 405.928 223.877C344 238.091 313.039 251.508 262.258 282.027C262.1 282.122 261.903 282.122 261.744 282.028C209.8 251.153 178.886 237.405 118.075 223.878C117.847 223.827 117.684 223.624 117.684 223.39V146.365C117.684 146.205 117.761 146.054 117.891 145.96C118.021 145.866 118.189 145.84 118.341 145.891L262 193.464L405.659 145.891Z" fill="#9A80A7" stroke="#9A80A7" stroke-linejoin="round"/>
<rect x="0.464263" y="0.532927" width="13.2036" height="93.0783" rx="0.5" transform="matrix(0.997668 0.0682467 -0.0691428 0.997607 61.2516 181.854)" fill="#9A80A7" stroke="#9A80A7"/>
<rect x="0.533414" y="0.46467" width="13.2036" height="32.2709" rx="0.5" transform="matrix(0.997667 -0.0682651 0.0691614 0.997606 453.132 243.797)" fill="#9A80A7" stroke="#9A80A7"/>
<rect x="255.398" y="260.344" width="13.2041" height="98.9551" rx="0.5" fill="#9A80A7" stroke="#9A80A7"/>
<path d="M255.99 346.277C255.99 346.474 255.874 346.653 255.694 346.733C255.514 346.814 255.304 346.781 255.157 346.65C228.961 323.3 205.032 308.368 176.292 297.936C147.539 287.499 113.948 281.557 68.411 276.217C68.2788 276.201 68.1582 276.134 68.076 276.029C67.9938 275.924 67.9569 275.79 67.9735 275.658L69.7489 261.547L69.7704 261.451C69.8418 261.236 70.0531 261.092 70.287 261.111C109.535 264.421 139.753 268.381 168.24 277.635C196.736 286.891 223.476 301.437 255.792 325.888C255.917 325.982 255.99 326.13 255.99 326.286V346.277Z" fill="#9A80A7" stroke="#9A80A7" stroke-linejoin="round"/>
<path d="M268.01 346.277C268.01 346.474 268.126 346.653 268.305 346.733C268.485 346.814 268.695 346.782 268.842 346.651C295.204 323.3 319.285 308.368 348.208 297.936C377.143 287.499 410.947 281.558 456.772 276.218C456.904 276.202 457.026 276.134 457.108 276.029C457.19 275.924 457.227 275.791 457.21 275.658L455.423 261.547L455.402 261.45C455.33 261.236 455.12 261.092 454.886 261.111C415.39 264.421 384.981 268.381 356.314 277.635C327.639 286.891 300.73 301.436 268.209 325.887C268.084 325.981 268.01 326.129 268.01 326.286V346.277Z" fill="#9A80A7" stroke="#9A80A7" stroke-linejoin="round"/>
<path d="M262.591 353.242C271.843 353.242 280.195 355.204 286.214 358.352C292.258 361.512 295.826 365.79 295.827 370.381C295.827 374.972 292.258 379.251 286.214 382.411C280.195 385.559 271.843 387.521 262.591 387.521C253.34 387.52 244.989 385.559 238.969 382.411C232.926 379.251 229.357 374.972 229.357 370.381C229.357 365.79 232.926 361.512 238.969 358.352C244.989 355.204 253.34 353.242 262.591 353.242Z" fill="#9A80A7" stroke="#9A80A7"/>
<path d="M50.7139 201.135L50.8223 201.146C50.9271 201.17 51.0226 201.227 51.0938 201.31C51.1887 201.421 51.2305 201.568 51.208 201.712L35.9072 299.93C84.8327 301.277 121.35 304.988 155.026 313.028C188.835 321.101 219.761 333.533 257.488 352.296C257.648 352.376 257.754 352.535 257.765 352.714C257.775 352.893 257.689 353.063 257.539 353.161L229.723 371.389C229.591 371.475 229.427 371.494 229.279 371.44C157.239 345.376 104.702 339.346 0.982422 335.604C0.828591 335.598 0.685047 335.522 0.594727 335.397C0.504582 335.273 0.476965 335.114 0.519531 334.966L38.9893 201.496L39.0186 201.419C39.1005 201.248 39.2749 201.135 39.4697 201.135H50.7139Z" fill="#9A80A7" stroke="#9A80A7" stroke-linejoin="round"/>
<path d="M473.286 201.723L473.178 201.734C473.073 201.758 472.977 201.814 472.906 201.897C472.811 202.008 472.77 202.155 472.792 202.3L488.093 300.518C439.167 301.865 402.65 305.575 368.974 313.616C335.165 321.689 304.239 334.121 266.512 352.884C266.352 352.964 266.246 353.123 266.235 353.302C266.225 353.481 266.311 353.651 266.461 353.749L294.277 371.977C294.409 372.063 294.573 372.082 294.721 372.028C366.761 345.964 419.298 339.934 523.018 336.191C523.171 336.186 523.315 336.11 523.405 335.985C523.495 335.861 523.523 335.701 523.48 335.554L485.011 202.084L484.981 202.007C484.899 201.835 484.725 201.723 484.53 201.723H473.286Z" fill="#9A80A7" stroke="#9A80A7" stroke-linejoin="round"/>
</svg>
