<svg width="24" height="24" viewBox="0 0 24 24" fill="none" xmlns="http://www.w3.org/2000/svg">
<path d="M8.99999 14.7107C8.99999 14.7107 9.33332 12.53 12 12.53C14.6667 12.53 15 14.7107 15 14.7107M10.5683 2.32393L7.36828 3.32393C6.15871 3.70192 5.55392 3.89092 5.10603 4.25553C4.71059 4.57744 4.40373 4.99484 4.21442 5.46829C4 6.00455 4 6.63818 4 7.90544V8.78363C4 11.1293 4 12.3021 4.25373 13.4069C4.51186 14.5309 4.96247 15.6018 5.58563 16.5721C6.19816 17.5259 7.03672 18.3459 8.71384 19.9859C9.8252 21.0726 10.3809 21.6159 11.0126 21.8361C11.652 22.059 12.348 22.059 12.9874 21.8361C13.6191 21.6159 14.1748 21.0726 15.2862 19.9859C16.9633 18.3459 17.8018 17.5259 18.4144 16.5721C19.0375 15.6018 19.4881 14.5309 19.7463 13.4069C20 12.3021 20 11.1293 20 8.78363V7.90544C20 6.63818 20 6.00455 19.7856 5.46829C19.5963 4.99484 19.2894 4.57744 18.894 4.25553C18.4461 3.89092 17.8413 3.70192 16.6317 3.32393L13.4317 2.32393C12.8999 2.15772 12.6339 2.07462 12.3626 2.04158C12.1217 2.01226 11.8783 2.01226 11.6374 2.04158C11.3661 2.07462 11.1001 2.15772 10.5683 2.32393ZM13.6875 8.43335C13.6875 9.36533 12.932 10.1209 12 10.1209C11.068 10.1209 10.3125 9.36533 10.3125 8.43335C10.3125 7.50136 11.068 6.74584 12 6.74584C12.932 6.74584 13.6875 7.50136 13.6875 8.43335Z" stroke="black" stroke-width="2" stroke-linecap="round" stroke-linejoin="round"/>
</svg>
