<svg width="48" height="60" viewBox="0 0 48 60" fill="none" xmlns="http://www.w3.org/2000/svg">
<path d="M24.0001 0.833252C15.9718 0.833252 9.41675 7.38835 9.41675 15.4166C9.41675 23.4448 15.9718 29.9999 24.0001 29.9999C32.0283 29.9999 38.5834 23.4448 38.5834 15.4166C38.5834 7.38835 32.0283 0.833252 24.0001 0.833252ZM24.0001 5.20825C29.6639 5.20825 34.2084 9.75277 34.2084 15.4166C34.2084 21.0804 29.6639 25.6249 24.0001 25.6249C18.3363 25.6249 13.7917 21.0804 13.7917 15.4166C13.7917 9.75277 18.3363 5.20825 24.0001 5.20825ZM6.46875 35.8333C3.28986 35.8333 0.666748 38.4564 0.666748 41.6353V43.8541C0.666748 49.1102 3.99068 53.1761 8.4056 55.6119C12.8205 58.0477 18.4119 59.1666 24.0001 59.1666C29.5883 59.1666 35.1796 58.0477 39.5946 55.6119C43.3589 53.535 46.192 50.2162 46.9859 46.0416H47.3363V41.6353C47.3363 38.4564 44.7103 35.8333 41.5314 35.8333H6.46875ZM6.46875 40.2082H41.5314C42.3454 40.2082 42.9613 40.8212 42.9613 41.6353V41.6666H42.9584V43.8541C42.9584 47.348 40.9959 49.8446 37.4811 51.7838C33.9663 53.723 28.9848 54.7916 24.0001 54.7916C19.0153 54.7916 14.0338 53.723 10.519 51.7838C7.00427 49.8446 5.04175 47.348 5.04175 43.8541V41.6353C5.04175 40.8212 5.65472 40.2082 6.46875 40.2082Z" fill="#9A80A7"/>
</svg>
