<svg width="54" height="54" viewBox="0 0 54 54" fill="none" xmlns="http://www.w3.org/2000/svg">
<path d="M21.8958 0.75C10.2432 0.75 0.75 10.2432 0.75 21.8958C0.75 33.5484 10.2432 43.0417 21.8958 43.0417C26.9364 43.0417 31.57 41.2611 35.2088 38.3021L49.5159 52.6091C49.7174 52.8191 49.9589 52.9867 50.226 53.1021C50.4932 53.2176 50.7807 53.2786 51.0717 53.2816C51.3627 53.2845 51.6514 53.2294 51.9209 53.1194C52.1903 53.0094 52.4351 52.8467 52.6409 52.6409C52.8467 52.4351 53.0094 52.1903 53.1194 51.9209C53.2294 51.6514 53.2845 51.3627 53.2816 51.0717C53.2786 50.7807 53.2176 50.4932 53.1021 50.226C52.9867 49.9589 52.8191 49.7174 52.6091 49.5159L38.3021 35.2088C41.2611 31.57 43.0417 26.9364 43.0417 21.8958C43.0417 10.2432 33.5485 0.75 21.8958 0.75ZM21.8958 5.125C31.184 5.125 38.6667 12.6076 38.6667 21.8958C38.6667 26.4205 36.882 30.5083 33.9869 33.5198C33.8084 33.6509 33.6509 33.8084 33.5198 33.9869C30.5083 36.882 26.4205 38.6667 21.8958 38.6667C12.6076 38.6667 5.125 31.184 5.125 21.8958C5.125 12.6076 12.6076 5.125 21.8958 5.125Z" fill="#9A80A7"/>
</svg>
