<svg width="56" height="60" viewBox="0 0 56 60" fill="none" xmlns="http://www.w3.org/2000/svg">
<path d="M27.9999 0.833496C25.7003 0.833496 23.483 1.12433 21.3662 1.61678C20.9248 1.71981 20.5263 1.95739 20.2258 2.2967C19.9253 2.63601 19.7375 3.06029 19.6886 3.5109L19.2243 7.74349C19.0725 9.13048 18.2713 10.3577 17.0624 11.0561C15.856 11.7531 14.3917 11.8303 13.1147 11.2697H13.1118L9.2239 9.55786C8.8092 9.37537 8.34807 9.32613 7.90419 9.41694C7.4603 9.50776 7.05557 9.73415 6.74587 10.0649C3.72348 13.2871 1.40385 17.1888 0.0865283 21.5435C-0.04469 21.977 -0.0381697 22.4404 0.105189 22.87C0.248548 23.2996 0.52168 23.6741 0.886903 23.9418L4.3362 26.4711C5.46255 27.2992 6.12494 28.6042 6.12494 30.0002C6.12494 31.3968 5.46257 32.703 4.3362 33.5292L0.886903 36.0557C0.52168 36.3234 0.248548 36.6979 0.105189 37.1275C-0.0381697 37.557 -0.04469 38.0205 0.0865283 38.4539C1.40371 42.8082 3.7215 46.7128 6.74587 49.9355C7.0559 50.2657 7.4608 50.4915 7.90466 50.5818C8.34853 50.6721 8.80948 50.6225 9.2239 50.4396L13.1118 48.7278C14.3895 48.1659 15.8552 48.2468 17.0624 48.9443C18.2713 49.6427 19.0725 50.8698 19.2243 52.2568L19.6886 56.4894C19.7379 56.9391 19.9255 57.3625 20.2254 57.7012C20.5253 58.0399 20.9229 58.2773 21.3634 58.3807C23.4811 58.8749 25.7003 59.1668 27.9999 59.1668C30.2996 59.1668 32.5169 58.876 34.6336 58.3835C35.075 58.2805 35.4736 58.0429 35.7741 57.7036C36.0746 57.3643 36.2623 56.94 36.3113 56.4894L36.7756 52.2568C36.9274 50.8698 37.7286 49.6427 38.9374 48.9443C40.1439 48.2472 41.6082 48.1672 42.8852 48.7278L46.776 50.4396C47.1904 50.6225 47.6513 50.6721 48.0952 50.5818C48.5391 50.4915 48.944 50.2657 49.254 49.9355C52.2764 46.7133 54.596 42.8087 55.9134 38.4539C56.0446 38.0205 56.0381 37.557 55.8947 37.1275C55.7513 36.6979 55.4782 36.3234 55.113 36.0557L51.6637 33.5292C50.5373 32.703 49.8749 31.3968 49.8749 30.0002C49.8749 28.6035 50.5373 27.2974 51.6637 26.4711L55.113 23.9447C55.4782 23.6769 55.7513 23.3024 55.8947 22.8728C56.0381 22.4433 56.0446 21.9798 55.9134 21.5464C54.596 17.1916 52.2764 13.2871 49.254 10.0649C48.944 9.73463 48.5391 9.50878 48.0952 9.41848C47.6513 9.32817 47.1904 9.37787 46.776 9.56071L42.8852 11.2725C41.6082 11.8331 40.1439 11.7531 38.9374 11.0561C37.7286 10.3577 36.9274 9.13048 36.7756 7.74349L36.3113 3.5109C36.262 3.06118 36.0744 2.63781 35.7745 2.2991C35.4745 1.96039 35.077 1.723 34.6365 1.61963C32.5188 1.12539 30.2996 0.833496 27.9999 0.833496ZM27.9999 5.2085C29.4208 5.2085 30.7852 5.46353 32.1528 5.7041L32.4262 8.21916C32.7294 10.9884 34.3392 13.4515 36.7499 14.8443C39.1623 16.2381 42.0992 16.3983 44.6483 15.2773L46.9611 14.2604C48.7371 16.393 50.1433 18.8019 51.1253 21.441L49.0746 22.9449C46.8293 24.592 45.4999 27.2143 45.4999 30.0002C45.4999 32.786 46.8293 35.4083 49.0746 37.0554L51.1253 38.5593C50.1433 41.1984 48.7371 43.6073 46.9611 45.7399L44.6483 44.7231C42.0992 43.602 39.1623 43.7623 36.7499 45.156C34.3392 46.5488 32.7294 49.0119 32.4262 51.7812L32.1528 54.2962C30.7854 54.5361 29.4201 54.7918 27.9999 54.7918C26.5791 54.7918 25.2146 54.5368 23.8471 54.2962L23.5737 51.7812C23.2705 49.0119 21.6607 46.5488 19.2499 45.156C16.8376 43.7623 13.9006 43.602 11.3516 44.7231L9.03876 45.7399C7.26241 43.6076 5.85652 41.1986 4.87453 38.5593L6.92531 37.0554C9.17061 35.4083 10.4999 32.786 10.4999 30.0002C10.4999 27.2143 9.16953 24.5903 6.92531 22.9421L4.87453 21.4381C5.85709 18.798 7.26455 16.3908 9.04161 14.2576L11.3516 15.2744C13.9006 16.3955 16.8376 16.2381 19.2499 14.8443C21.6607 13.4515 23.2705 10.9884 23.5737 8.21916L23.8471 5.7041C25.2145 5.4642 26.5798 5.2085 27.9999 5.2085ZM27.9999 18.3335C21.5825 18.3335 16.3333 23.5828 16.3333 30.0002C16.3333 36.4176 21.5825 41.6668 27.9999 41.6668C34.4174 41.6668 39.6666 36.4176 39.6666 30.0002C39.6666 23.5828 34.4174 18.3335 27.9999 18.3335ZM27.9999 22.7085C32.0529 22.7085 35.2916 25.9472 35.2916 30.0002C35.2916 34.0531 32.0529 37.2918 27.9999 37.2918C23.9469 37.2918 20.7083 34.0531 20.7083 30.0002C20.7083 25.9472 23.9469 22.7085 27.9999 22.7085Z" fill="#9A80A7"/>
</svg>
