<svg width="70" height="70" viewBox="0 0 70 70" fill="none" xmlns="http://www.w3.org/2000/svg">
<path d="M34.9686 6.56247C34.3993 6.57079 33.8558 6.80069 33.4533 7.20334L24.7033 15.9533C24.4934 16.1549 24.3257 16.3963 24.2103 16.6635C24.0948 16.9307 24.0338 17.2182 24.0309 17.5092C24.0279 17.8002 24.083 18.0889 24.1931 18.3583C24.3031 18.6278 24.4657 18.8726 24.6715 19.0784C24.8773 19.2842 25.1221 19.4468 25.3915 19.5568C25.661 19.6668 25.9497 19.722 26.2407 19.719C26.5317 19.7161 26.8192 19.6551 27.0864 19.5396C27.3535 19.4241 27.595 19.2565 27.7965 19.0466L32.8096 14.0336L32.7839 43.018C32.7795 43.3078 32.8327 43.5957 32.9404 43.8648C33.0482 44.1339 33.2083 44.3789 33.4116 44.5856C33.6149 44.7923 33.8572 44.9565 34.1245 45.0687C34.3917 45.181 34.6787 45.2389 34.9685 45.2393C35.2584 45.2397 35.5455 45.1825 35.8131 45.0709C36.0807 44.9594 36.3234 44.7958 36.5272 44.5897C36.731 44.3835 36.8918 44.1389 37.0002 43.8701C37.1087 43.6012 37.1626 43.3135 37.1589 43.0237L37.1846 14.0279L42.2033 19.0466C42.4049 19.2565 42.6463 19.4241 42.9134 19.5396C43.1806 19.6551 43.4681 19.7161 43.7591 19.719C44.0502 19.722 44.3388 19.6668 44.6083 19.5568C44.8777 19.4468 45.1225 19.2842 45.3283 19.0784C45.5341 18.8726 45.6968 18.6278 45.8068 18.3583C45.9168 18.0889 45.9719 17.8002 45.969 17.5092C45.966 17.2182 45.905 16.9307 45.7896 16.6635C45.6741 16.3963 45.5065 16.1549 45.2965 15.9533L36.5465 7.20334C36.3397 6.99644 36.0935 6.83312 35.8225 6.72305C35.5515 6.61297 35.2611 6.55837 34.9686 6.56247ZM22.6041 24.7916C18.2002 24.7916 14.5833 28.4086 14.5833 32.8125V56.1458C14.5833 60.5496 18.2002 64.1666 22.6041 64.1666H47.3958C51.7996 64.1666 55.4166 60.5496 55.4166 56.1458V32.8125C55.4166 28.4086 51.7996 24.7916 47.3958 24.7916H44.4791C44.1892 24.7875 43.9014 24.8411 43.6324 24.9492C43.3634 25.0573 43.1186 25.2178 42.9122 25.4213C42.7057 25.6248 42.5418 25.8674 42.4299 26.1348C42.318 26.4022 42.2604 26.6892 42.2604 26.9791C42.2604 27.269 42.318 27.556 42.4299 27.8235C42.5418 28.0909 42.7057 28.3335 42.9122 28.537C43.1186 28.7405 43.3634 28.901 43.6324 29.0091C43.9014 29.1172 44.1892 29.1707 44.4791 29.1666H47.3958C49.4348 29.1666 51.0416 30.7734 51.0416 32.8125V56.1458C51.0416 58.1849 49.4348 59.7916 47.3958 59.7916H22.6041C20.565 59.7916 18.9583 58.1849 18.9583 56.1458V32.8125C18.9583 30.7734 20.565 29.1666 22.6041 29.1666H25.5208C25.8106 29.1707 26.0984 29.1172 26.3674 29.0091C26.6364 28.901 26.8812 28.7405 27.0877 28.537C27.2941 28.3335 27.458 28.0909 27.5699 27.8235C27.6818 27.556 27.7394 27.269 27.7394 26.9791C27.7394 26.6892 27.6818 26.4022 27.5699 26.1348C27.458 25.8674 27.2941 25.6248 27.0877 25.4213C26.8812 25.2178 26.6364 25.0573 26.3674 24.9492C26.0984 24.8411 25.8106 24.7875 25.5208 24.7916H22.6041Z" fill="black"/>
</svg>
