<svg width="60" height="60" viewBox="0 0 60 60" fill="none" xmlns="http://www.w3.org/2000/svg">
<path d="M16.8479 6.25C16.36 6.25714 15.8941 6.45419 15.5491 6.79932L3.04912 19.2993C2.86917 19.4721 2.72551 19.679 2.62654 19.908C2.52757 20.137 2.47529 20.3834 2.47275 20.6329C2.47022 20.8823 2.51748 21.1298 2.61177 21.3607C2.70606 21.5917 2.84549 21.8015 3.02189 21.9779C3.19828 22.1543 3.4081 22.2937 3.63906 22.388C3.87001 22.4823 4.11746 22.5296 4.36691 22.5271C4.61636 22.5245 4.86279 22.4722 5.09178 22.3733C5.32077 22.2743 5.52771 22.1306 5.70049 21.9507L14.9998 12.6514V39.375C14.9963 39.6235 15.0422 39.8701 15.1348 40.1007C15.2275 40.3313 15.365 40.5411 15.5395 40.7181C15.714 40.895 15.9218 41.0355 16.1511 41.1314C16.3803 41.2273 16.6263 41.2767 16.8748 41.2767C17.1233 41.2767 17.3693 41.2273 17.5985 41.1314C17.8278 41.0355 18.0356 40.895 18.2101 40.7181C18.3846 40.5411 18.5221 40.3313 18.6148 40.1007C18.7074 39.8701 18.7533 39.6235 18.7498 39.375V12.6514L28.0491 21.9507C28.2219 22.1306 28.4288 22.2743 28.6578 22.3733C28.8868 22.4722 29.1332 22.5245 29.3827 22.5271C29.6321 22.5296 29.8796 22.4823 30.1105 22.388C30.3415 22.2937 30.5513 22.1543 30.7277 21.9779C30.9041 21.8015 31.0435 21.5917 31.1378 21.3607C31.2321 21.1298 31.2794 20.8823 31.2769 20.6329C31.2743 20.3834 31.222 20.137 31.1231 19.908C31.0241 19.679 30.8804 19.4721 30.7005 19.2993L18.2005 6.79932C18.0232 6.62198 17.8122 6.48199 17.5799 6.38764C17.3476 6.29328 17.0987 6.24648 16.8479 6.25ZM43.1248 6.25C42.6275 6.25 42.1506 6.44755 41.799 6.79918C41.4473 7.15081 41.2498 7.62772 41.2498 8.125C41.2498 8.62228 41.4473 9.0992 41.799 9.45083C42.1506 9.80246 42.6275 10 43.1248 10C43.6221 10 44.099 9.80246 44.4506 9.45083C44.8023 9.0992 44.9998 8.62228 44.9998 8.125C44.9998 7.62772 44.8023 7.15081 44.4506 6.79918C44.099 6.44755 43.6221 6.25 43.1248 6.25ZM43.1248 12.5C42.6275 12.5 42.1506 12.6975 41.799 13.0492C41.4473 13.4008 41.2498 13.8777 41.2498 14.375C41.2498 14.8723 41.4473 15.3492 41.799 15.7008C42.1506 16.0525 42.6275 16.25 43.1248 16.25C43.6221 16.25 44.099 16.0525 44.4506 15.7008C44.8023 15.3492 44.9998 14.8723 44.9998 14.375C44.9998 13.8777 44.8023 13.4008 44.4506 13.0492C44.099 12.6975 43.6221 12.5 43.1248 12.5ZM43.0955 18.7231C42.5987 18.7309 42.1252 18.9356 41.7791 19.2922C41.4331 19.6488 41.2427 20.1281 41.2498 20.625V46.0986L31.9505 36.7993C31.7757 36.6193 31.5666 36.4763 31.3355 36.3785C31.1045 36.2808 30.8561 36.2305 30.6053 36.2305C30.2321 36.2306 29.8675 36.342 29.558 36.5505C29.2485 36.759 29.0083 37.055 28.868 37.4008C28.7278 37.7466 28.6939 38.1264 28.7707 38.4916C28.8475 38.8567 29.0315 39.1907 29.2991 39.4507L41.7991 51.9507C42.1508 52.3022 42.6276 52.4996 43.1248 52.4996C43.622 52.4996 44.0988 52.3022 44.4505 51.9507L56.9505 39.4507C57.1304 39.2779 57.2741 39.071 57.3731 38.842C57.472 38.613 57.5243 38.3666 57.5268 38.1171C57.5294 37.8677 57.4821 37.6202 57.3878 37.3893C57.2935 37.1583 57.1541 36.9485 56.9777 36.7721C56.8013 36.5957 56.5915 36.4563 56.3605 36.362C56.1296 36.2677 55.8821 36.2204 55.6327 36.223C55.3833 36.2255 55.1368 36.2778 54.9078 36.3767C54.6788 36.4757 54.4719 36.6194 54.2991 36.7993L44.9998 46.0986V20.625C45.0034 20.374 44.9566 20.1249 44.8621 19.8924C44.7677 19.6599 44.6275 19.4487 44.4499 19.2713C44.2723 19.0939 44.0609 18.954 43.8283 18.8599C43.5956 18.7657 43.3465 18.7192 43.0955 18.7231ZM16.8748 43.75C16.3775 43.75 15.9006 43.9475 15.549 44.2992C15.1973 44.6508 14.9998 45.1277 14.9998 45.625C14.9998 46.1223 15.1973 46.5992 15.549 46.9508C15.9006 47.3025 16.3775 47.5 16.8748 47.5C17.3721 47.5 17.849 47.3025 18.2006 46.9508C18.5523 46.5992 18.7498 46.1223 18.7498 45.625C18.7498 45.1277 18.5523 44.6508 18.2006 44.2992C17.849 43.9475 17.3721 43.75 16.8748 43.75ZM16.8748 50C16.3775 50 15.9006 50.1975 15.549 50.5492C15.1973 50.9008 14.9998 51.3777 14.9998 51.875C14.9998 52.3723 15.1973 52.8492 15.549 53.2008C15.9006 53.5525 16.3775 53.75 16.8748 53.75C17.3721 53.75 17.849 53.5525 18.2006 53.2008C18.5523 52.8492 18.7498 52.3723 18.7498 51.875C18.7498 51.3777 18.5523 50.9008 18.2006 50.5492C17.849 50.1975 17.3721 50 16.8748 50Z" fill="black"/>
</svg>
