<svg width="70" height="70" viewBox="0 0 70 70" fill="none" xmlns="http://www.w3.org/2000/svg">
<path d="M35.0143 7.29155C34.6054 7.28899 34.2041 7.40105 33.8557 7.61502C33.5073 7.82898 33.2259 8.13628 33.0432 8.50208L25.5294 23.5297L7.68762 26.2755C7.28825 26.3372 6.91379 26.5083 6.60574 26.7699C6.2977 27.0314 6.06811 27.3732 5.94245 27.7573C5.81679 28.1413 5.79996 28.5527 5.89382 28.9458C5.98769 29.3388 6.18859 29.6982 6.47424 29.984L18.816 42.3257L16.0673 60.1875C16.0058 60.5871 16.0563 60.9959 16.2131 61.3686C16.3699 61.7413 16.6269 62.0632 16.9556 62.2987C17.2843 62.5341 17.6718 62.6739 18.0751 62.7024C18.4784 62.731 18.8818 62.6472 19.2404 62.4604L35 54.2373L50.7597 62.4604C51.1183 62.6472 51.5216 62.731 51.925 62.7024C52.3283 62.6739 52.7158 62.5341 53.0445 62.2987C53.3732 62.0632 53.6302 61.7413 53.787 61.3686C53.9438 60.9959 53.9942 60.5871 53.9327 60.1875L51.1841 42.3257L63.5258 29.984C63.8115 29.6982 64.0124 29.3388 64.1063 28.9458C64.2001 28.5527 64.1833 28.1413 64.0576 27.7573C63.932 27.3732 63.7024 27.0314 63.3943 26.7699C63.0863 26.5083 62.7118 26.3372 62.3125 26.2755L44.4707 23.5297L36.9568 8.50208C36.7764 8.14061 36.4994 7.83617 36.1565 7.62251C35.8136 7.40884 35.4183 7.29429 35.0143 7.29155Z" fill="#BDAAC6"/>
</svg>
