<svg width="24" height="24" viewBox="0 0 24 24" fill="none" xmlns="http://www.w3.org/2000/svg">
<path d="M9.86224 5.66217C10.5522 4.31019 10.8972 3.6342 11.3616 3.41579C11.7659 3.22566 12.234 3.22566 12.6383 3.41579C13.1027 3.6342 13.4477 4.31019 14.1377 5.66217L14.8923 7.14093C15.0957 7.5394 15.1974 7.73863 15.3433 7.894C15.4726 8.03159 15.6267 8.14355 15.7975 8.22398C15.9904 8.3148 16.2113 8.34993 16.6531 8.42019L18.2927 8.68096C19.7917 8.91936 20.5412 9.03857 20.8924 9.4128C21.1982 9.73857 21.3428 10.1837 21.287 10.627C21.2228 11.1362 20.6865 11.6732 19.6139 12.7471L18.4407 13.9218C18.1245 14.2383 17.9665 14.3966 17.8638 14.5835C17.7729 14.7489 17.7141 14.9301 17.6904 15.1174C17.6636 15.3289 17.6984 15.5498 17.7681 15.9917L18.0268 17.6316C18.2633 19.131 18.3815 19.8806 18.1341 20.3303C17.9188 20.7218 17.5402 20.9969 17.1013 21.0807C16.5972 21.177 15.9208 20.8329 14.5679 20.1447L13.0882 19.3919C12.6894 19.1891 12.4901 19.0876 12.2807 19.0477C12.0952 19.0124 11.9047 19.0124 11.7193 19.0477C11.5098 19.0876 11.3105 19.1891 10.9118 19.3919L9.43203 20.1447C8.07916 20.8329 7.40273 21.177 6.8986 21.0807C6.45975 20.9969 6.08111 20.7218 5.86577 20.3303C5.6184 19.8806 5.73665 19.131 5.97313 17.6316L6.23179 15.9917C6.30149 15.5498 6.33634 15.3289 6.30956 15.1174C6.28585 14.9301 6.227 14.7489 6.13609 14.5835C6.03343 14.3966 5.87537 14.2384 5.55924 13.9218L4.38606 12.7471C3.31346 11.6732 2.77716 11.1362 2.71296 10.627C2.65708 10.1837 2.8017 9.73857 3.10747 9.4128C3.45871 9.03857 4.20822 8.91936 5.70724 8.68096L7.34683 8.42019C7.78863 8.34993 8.00953 8.3148 8.20241 8.22398C8.37321 8.14355 8.5273 8.03159 8.65658 7.894C8.80256 7.73863 8.90423 7.5394 9.10758 7.14093L9.86224 5.66217Z" fill="#BDAAC6" stroke="#BDAAC6" stroke-width="2" stroke-linecap="round" stroke-linejoin="round"/>
</svg>
