<svg width="36" height="34" viewBox="0 0 36 34" fill="none" xmlns="http://www.w3.org/2000/svg">
<path d="M17.6887 3.19824C13.6367 3.19824 10.3283 6.33748 10.3283 10.1822C10.3283 14.0269 13.6367 17.1662 17.6887 17.1662C21.7406 17.1662 25.049 14.0269 25.049 10.1822C25.049 6.33748 21.7406 3.19824 17.6887 3.19824ZM17.6887 5.29343C20.5472 5.29343 22.8409 7.4698 22.8409 10.1822C22.8409 12.8946 20.5472 15.071 17.6887 15.071C14.8301 15.071 12.5364 12.8946 12.5364 10.1822C12.5364 7.4698 14.8301 5.29343 17.6887 5.29343ZM8.84043 19.9598C7.23602 19.9598 5.91211 21.216 5.91211 22.7383V23.8009C5.91211 26.3181 7.58973 28.2652 9.81798 29.4318C12.0462 30.5983 14.8682 31.1341 17.6887 31.1341C20.5091 31.1341 23.3311 30.5983 25.5593 29.4318C27.4592 28.4371 28.8891 26.8478 29.2898 24.8485H29.4666V22.7383C29.4666 21.216 28.1413 19.9598 26.5369 19.9598H8.84043ZM8.84043 22.0549H26.5369C26.9477 22.0549 27.2585 22.3485 27.2585 22.7383V22.7533H27.2571V23.8009C27.2571 25.4742 26.2666 26.6698 24.4927 27.5985C22.7187 28.5271 20.2045 29.0389 17.6887 29.0389C15.1728 29.0389 12.6586 28.5271 10.8847 27.5985C9.11071 26.6698 8.12021 25.4742 8.12021 23.8009V22.7383C8.12021 22.3485 8.42958 22.0549 8.84043 22.0549Z" fill="black"/>
</svg>
